<svg xmlns="http://www.w3.org/2000/svg" viewBox="0 0 1000 1000"><path d="M793.64 84.87c-19.17 7.88-30.04 17.9-38.14 35.58-6.6 14.06-7.46 34.3-2.13 49.86 4.05 11.5 21.09 31.32 30.68 35.37 3.41 1.49 6.39 3.41 6.39 4.26s-5.54 6.82-12.15 13c-16.83 15.34-42.61 27.06-88.42 40.27-50.07 14.28-71.38 21.95-93.96 33.45l-18.75 9.8-13.21-3.62c-57.95-15.34-122.3-15.55-181.53 0C251.83 336.71 130.81 447.71 89.69 571.5c-9.8 28.98-13.21 49.85-13.21 78.41 0 66.69 30.25 112.92 96.09 147.01l22.37 11.5-74.78.21c-77.13 0-83.09.64-95.24 8.95-8.74 6.18-15.13 20.03-14.91 32.6 0 12.14 3.83 20.88 12.78 29.19 8.52 8.1 15.55 10.23 33.88 10.23h15.77l8.95 13.85 9.16 13.85h764.88l9.16-13.85 8.95-13.85h16.19c28.97 0 46.02-14.49 46.45-39.42.21-14.06-5.97-25.78-17.69-34.09l-9.16-6.39-79.04-.64-79.26-.64 15.34-7.24c40.27-18.75 73.08-47.94 87.78-78.19 11.29-22.8 15.13-38.35 16.62-64.56 1.28-24.72-2.77-52.84-11.29-80.32-5.76-18.11-23.87-59.23-26.21-59.23-.64.21-4.69 5.54-8.73 12.14-4.05 6.6-15.98 20.88-26.21 31.75-28.76 30.25-57.1 49.64-94.38 64.56-71.16 28.55-144.24 20.46-182.17-20.24-8.31-8.73-18.96-24.08-18.96-27.06 0-.85 4.47 1.7 9.8 5.75 27.27 20.88 65.62 30.04 103.97 24.93 55.18-7.46 104.18-38.14 139.98-87.57 19.6-27.27 34.09-59.66 51.78-117.18 14.7-47.51 32.17-85.01 47.94-102.48l10.65-11.93 12.35 11.93c9.38 9.16 15.34 13 24.93 15.98 31.74 10.01 65.62-4.26 80.32-34.09 7.24-14.7 7.24-42.19.21-56.67-6.39-12.78-19.18-25.57-31.96-31.75-15.34-7.46-39.63-7.03-57.1 1.07-15.55 7.03-22.16 6.61-26-1.28-2.34-5.11-1.92-7.03 4.26-19.18 13-25.57 8.1-56.89-11.93-76.91-12.78-12.78-23.22-17.04-43.89-17.9-11.07-.22-20.66.42-24.49 2.12z" fill="#0f6f12"/></svg>