<svg xmlns="http://www.w3.org/2000/svg" viewBox="0 0 136.06 132.17"><defs><style>.cls-1{fill:#287233;}</style></defs><g id="Слой_2" data-name="Слой 2"><g id="head"><path class="cls-1" d="M16,62.42C11,67.45,5.59,75.1,0,84.23A72.45,72.45,0,0,0,15.18,99.6c22.71,17.52,49.29,28.07,77.28,32.57-3-22-5.27-37.11-5.27-37.11s6.09,14.77,17.71,10.9c15.73-5.25,7.9-22.17,7.9-22.17l23.26-5.86L116.57,63.55s.5-7.49-2.49-11.49-12.49-7.62-12.49-7.62,9.49-29.46.5-32.95S89.61,27,89.61,27s1-27-10.49-27-.5,22.47-.5,22.47-8.48-12-17-7,8.49,23,8.49,23S40.17,37.7,16,62.42Z"/></g></g></svg>