<svg version="1.1" id="Capa_1" xmlns="http://www.w3.org/2000/svg" x="0" y="0" viewBox="0 0 512 512" xml:space="preserve"><style>.st0{fill:#0f6f12}</style><path class="st0" d="M59.9 138.9s77.5 161.4 77.5 355.1h80.2c0-.1 6.5-262.9-157.7-355.1zm392.3 0S374.7 300.3 374.7 494h-80.2c0-.1-6.4-262.9 157.7-355.1z"/><path class="st0" d="M512 286.4s-58.1 69.2-58.1 207.5h-80.2S359.8 332.5 512 286.4zm-512 0s58.1 69.2 58.1 207.5h80.2S152.2 332.5 0 286.4zM380.2 18.1S296.3 219.2 296.3 494H216c0-.1-14.7-323.8 164.2-475.9z"/></svg>