<svg xmlns="http://www.w3.org/2000/svg" viewBox="0 0 592.5 463.8"><path d="M222.5 450.6c0-.4 1.2-4.7 2.6-9.7 1.4-5 3-15.6 3.6-23.7.7-10.4 1.6-15.6 3.2-17.9 2.1-3.2 2.1-3.4-.9-6.6-6.5-6.9-14-27.9-17.8-49.6-2-11.4-2.6-13-6.9-17.5-8-8.5-14-17.2-13.4-19.4.4-1.6-1-2.9-5.5-4.9-8.9-4-18.6-15.2-26.1-30.2-3.5-6.9-6.3-13.3-6.3-14.1 0-1-6.1-1.5-21.6-1.5-19.2 0-23-.4-35-3.4-16.4-4.1-34.1-10.6-49-18-11.8-5.9-33.5-21.3-35.6-25.3-1.5-2.7-1.5-13.3-.1-16.9.5-1.4.5-3.9-.2-5.6-2.2-5.8-1.5-21.3 1.4-31.7 3.6-12.9 8.9-24.2 22.6-48.1 8.9-15.5 11.7-21.7 13.8-30 3.1-12.6 8.8-23.2 14-25.9 6.4-3.3 19.7-5.5 37.9-6.3l17.5-.7 3.5 3.7c2.3 2.5 4.3 6.8 5.9 13 4 15.4 3.7 16.8-5.7 25.8-4.5 4.3-9.2 7.8-10.6 7.8s-6.3.6-11 1.4c-7.1 1.2-9.2 1.1-13.1-.5-3.7-1.6-4.8-2.8-5.4-6.2-.7-3.6-1.2-4.2-3.7-3.7-2.4.5-3 1.6-3.7 6.4-.4 3.2-1.8 8.1-3.1 10.8-1.8 3.9-2 6-1.1 9.6.7 2.7.7 8 0 13.2-1 7.7-.8 9.3 1.7 14.7 3.3 7.1 6 21.9 4.9 26.3-.7 2.8-.4 3.1 3.5 3.1 3.1 0 5.4-1.1 8.8-4.3 9.5-9 26.6-9.2 43.7-.4 4.5 2.3 4.9 2.3 7.1.3 1.3-1.2 3.9-2.3 5.8-2.4 1.9-.2 6.3-1.6 9.7-3.1 11.5-5.2 33.3-1.9 53 8 6.5 3.3 6.8 3.3 11.1 1.3 3-1.4 6-1.9 9.6-1.4 4.8.7 5.4.4 7.7-3.3 1.5-2.4 5.4-5.5 9.7-7.7 6.6-3.4 7.2-4 7.2-7.8 0-2.3.6-8.3 1.4-13.4 1.3-8.4 1.2-9.7-1.2-14.3-1.4-2.8-3-7.5-3.4-10.5-.5-3.5-2.2-7-4.8-9.9-5.1-5.7-6.3-13.2-3.8-24 1-4.3 2.1-11.2 2.6-15.3 3.2-29.1 15.5-45.6 33.8-45.6 2.3 0 5.5-.5 7.2-1.2 1.8-.7 6.9-.7 12.9 0 31 3.6 39.8 11.8 43 40.1.7 6.3 2.5 16.1 3.9 21.9 3.2 12.6 2.2 17.7-4.7 25.3-2.7 3-4.3 6-4.3 8.2 0 1.9-1.5 6.7-3.2 10.6-2.8 6.3-3.1 7.8-1.9 12 .7 2.7 1.3 8.3 1.4 12.6v7.7l6.7 3.1c3.7 1.7 8.3 5 10.2 7.4 3.2 4 3.9 4.3 8.8 3.7 3.4-.4 6.7.1 9.2 1.3 3.7 1.9 4.3 1.8 13.4-2.4 13.9-6.3 25.7-9.3 37.3-9.2 7.5 0 11 .6 13.8 2.3 2.1 1.3 6 2.7 8.8 3.2 2.7.5 5.9 1.7 7 2.7 1.7 1.6 2.8 1.4 8.1-.9 14.6-6.5 27.5-7.7 36.2-3.6 2.9 1.4 5.9 3.9 6.9 5.6 1.3 2.5 2.6 3.1 6.3 3.1h4.6l.8-9.7c.5-5.3 2.1-13.3 3.6-17.8 2.3-6.7 2.6-9.7 1.9-16.9-.4-4.8-.4-10.8.2-13.3.7-3.3.3-6.5-1.3-11.2-1.3-3.7-2.3-7.8-2.4-9.2-.1-3.4-1.4-5.1-4.7-6.2-2.3-.7-2.8-.4-2.8 1.8 0 8.1-6.8 10.7-22.5 8.6l-10.6-1.4-14.5-15.3.5-9.4c.3-6.4 1.4-11.1 3.3-14.7 4.8-9.4 6.3-10.3 18-10.2 13.1 0 31 2 39.3 4.4 9.5 2.7 16.8 12.9 18.4 25.6.8 6.4 8 22 16.9 36.8 14.4 23.9 24 48.6 23.7 61.2-.1 2.8-.8 7.9-1.6 11.4-1.3 5.5-1.2 6.8.9 10.7 7 12.9-8.5 28.5-41.7 41.8-29.7 11.9-64 19.6-88.3 19.6h-12.6l-1.5 5.2c-4.6 15.4-19.6 35.5-30.7 40.9-4.2 2-5.6 3.4-5.6 5.6 0 3-6 11.7-13.3 19.4-3.6 3.8-4.5 5.9-6.1 15.6-3.8 22-10.3 40.7-17.6 50.2-3 4-3.1 4.3-1.1 8.1 1.3 2.4 2.2 7.8 2.4 14.1.4 10.3 3.1 26 5.5 32.4.7 1.9 1.4 3.8 1.4 4.1 0 .3-33.2.5-73.8.5s-74-.4-74-.8z" fill="#0f6f12"/></svg>