<?xml version="1.0" encoding="utf-8"?>
<!-- Generator: Adobe Illustrator 24.1.0, SVG Export Plug-In . SVG Version: 6.00 Build 0)  -->
<svg version="1.1"
	 id="Слой_1" xmlns:cc="http://creativecommons.org/ns#" xmlns:dc="http://purl.org/dc/elements/1.1/" xmlns:rdf="http://www.w3.org/1999/02/22-rdf-syntax-ns#"
	 xmlns="http://www.w3.org/2000/svg" xmlns:xlink="http://www.w3.org/1999/xlink" x="0px" y="0px" viewBox="0 0 592.5 463.8"
	 style="enable-background:new 0 0 592.5 463.8;" xml:space="preserve">
<style type="text/css">
	.st0{fill:#0F6F12;}
</style>
<path class="st0" d="M222.5,450.6c0-0.4,1.2-4.7,2.6-9.7c1.4-5,3-15.6,3.6-23.7c0.7-10.4,1.6-15.6,3.2-17.9c2.1-3.2,2.1-3.4-0.9-6.6
	c-6.5-6.9-14-27.9-17.8-49.6c-2-11.4-2.6-13-6.9-17.5c-8-8.5-14-17.2-13.4-19.4c0.4-1.6-1-2.9-5.5-4.9c-8.9-4-18.6-15.2-26.1-30.2
	c-3.5-6.9-6.3-13.3-6.3-14.1c0-1-6.1-1.5-21.6-1.5c-19.2,0-23-0.4-35-3.4C82,248,64.3,241.5,49.4,234.1
	c-11.8-5.9-33.5-21.3-35.6-25.3c-1.5-2.7-1.5-13.3-0.1-16.9c0.5-1.4,0.5-3.9-0.2-5.6c-2.2-5.8-1.5-21.3,1.4-31.7
	c3.6-12.9,8.9-24.2,22.6-48.1c8.9-15.5,11.7-21.7,13.8-30c3.1-12.6,8.8-23.2,14-25.9c6.4-3.3,19.7-5.5,37.9-6.3l17.5-0.7l3.5,3.7
	c2.3,2.5,4.3,6.8,5.9,13c4,15.4,3.7,16.8-5.7,25.8c-4.5,4.3-9.2,7.8-10.6,7.8s-6.3,0.6-11,1.4c-7.1,1.2-9.2,1.1-13.1-0.5
	c-3.7-1.6-4.8-2.8-5.4-6.2c-0.7-3.6-1.2-4.2-3.7-3.7c-2.4,0.5-3,1.6-3.7,6.4c-0.4,3.2-1.8,8.1-3.1,10.8c-1.8,3.9-2,6-1.1,9.6
	c0.7,2.7,0.7,8,0,13.2c-1,7.7-0.8,9.3,1.7,14.7c3.3,7.1,6,21.9,4.9,26.3c-0.7,2.8-0.4,3.1,3.5,3.1c3.1,0,5.4-1.1,8.8-4.3
	c9.5-9,26.6-9.2,43.7-0.4c4.5,2.3,4.9,2.3,7.1,0.3c1.3-1.2,3.9-2.3,5.8-2.4c1.9-0.2,6.3-1.6,9.7-3.1c11.5-5.2,33.3-1.9,53,8
	c6.5,3.3,6.8,3.3,11.1,1.3c3-1.4,6-1.9,9.6-1.4c4.8,0.7,5.4,0.4,7.7-3.3c1.5-2.4,5.4-5.5,9.7-7.7c6.6-3.4,7.2-4,7.2-7.8
	c0-2.3,0.6-8.3,1.4-13.4c1.3-8.4,1.2-9.7-1.2-14.3c-1.4-2.8-3-7.5-3.4-10.5c-0.5-3.5-2.2-7-4.8-9.9c-5.1-5.7-6.3-13.2-3.8-24
	c1-4.3,2.1-11.2,2.6-15.3c3.2-29.1,15.5-45.6,33.8-45.6c2.3,0,5.5-0.5,7.2-1.2c1.8-0.7,6.9-0.7,12.9,0c31,3.6,39.8,11.8,43,40.1
	c0.7,6.3,2.5,16.1,3.9,21.9c3.2,12.6,2.2,17.7-4.7,25.3c-2.7,3-4.3,6-4.3,8.2c0,1.9-1.5,6.7-3.2,10.6c-2.8,6.3-3.1,7.8-1.9,12
	c0.7,2.7,1.3,8.3,1.4,12.6l0,7.7l6.7,3.1c3.7,1.7,8.3,5,10.2,7.4c3.2,4,3.9,4.3,8.8,3.7c3.4-0.4,6.7,0.1,9.2,1.3
	c3.7,1.9,4.3,1.8,13.4-2.4c13.9-6.3,25.7-9.3,37.3-9.2c7.5,0,11,0.6,13.8,2.3c2.1,1.3,6,2.7,8.8,3.2c2.7,0.5,5.9,1.7,7,2.7
	c1.7,1.6,2.8,1.4,8.1-0.9c14.6-6.5,27.5-7.7,36.2-3.6c2.9,1.4,5.9,3.9,6.9,5.6c1.3,2.5,2.6,3.1,6.3,3.1h4.6l0.8-9.7
	c0.5-5.3,2.1-13.3,3.6-17.8c2.3-6.7,2.6-9.7,1.9-16.9c-0.4-4.8-0.4-10.8,0.2-13.3c0.7-3.3,0.3-6.5-1.3-11.2
	c-1.3-3.7-2.3-7.8-2.4-9.2c-0.1-3.4-1.4-5.1-4.7-6.2c-2.3-0.7-2.8-0.4-2.8,1.8c0,8.1-6.8,10.7-22.5,8.6l-10.6-1.4l-14.5-15.3
	l0.5-9.4c0.3-6.4,1.4-11.1,3.3-14.7c4.8-9.4,6.3-10.3,18-10.2c13.1,0,31,2,39.3,4.4c9.5,2.7,16.8,12.9,18.4,25.6
	c0.8,6.4,8,22,16.9,36.8c14.4,23.9,24,48.6,23.7,61.2c-0.1,2.8-0.8,7.9-1.6,11.4c-1.3,5.5-1.2,6.8,0.9,10.7
	c7,12.9-8.5,28.5-41.7,41.8c-29.7,11.9-64,19.6-88.3,19.6l-12.6,0l-1.5,5.2c-4.6,15.4-19.6,35.5-30.7,40.9c-4.2,2-5.6,3.4-5.6,5.6
	c0,3-6,11.7-13.3,19.4c-3.6,3.8-4.5,5.9-6.1,15.6c-3.8,22-10.3,40.7-17.6,50.2c-3,4-3.1,4.3-1.1,8.1c1.3,2.4,2.2,7.8,2.4,14.1
	c0.4,10.3,3.1,26,5.5,32.4c0.7,1.9,1.4,3.8,1.4,4.1c0,0.3-33.2,0.5-73.8,0.5S222.5,451,222.5,450.6L222.5,450.6z"/>
</svg>
