<svg version="1.1" id="Слой_1" xmlns="http://www.w3.org/2000/svg" x="0" y="0" viewBox="0 0 640 1280" xml:space="preserve"><style>.st0{fill:#0f6f13}</style><path class="st0" d="M3033 12785c-93-17-162-40-248-83-255-127-432-345-507-623l-23-84-5-4232-5-4232-85-56c-437-292-714-707-821-1233-27-130-36-423-19-570 94-797 686-1452 1471-1626 990-219 1982 385 2238 1365 50 191 56 247 56 489 0 239-8 301-61 499-91 337-299 673-560 903-85 76-213 171-281 209l-43 24v1035h650v240h-650v1530h650v240h-650v1530h650v240l-322 2-323 3-3 763-2 762h650v250h-650v913c0 850-2 918-19 1002-38 186-127 345-270 485-219 213-524 309-818 255zm340-349c189-60 340-209 405-400l27-81 3-4312 2-4312 118-69c310-184 502-381 646-664 254-498 227-1079-72-1543-228-355-580-595-1005-687-150-32-446-32-600 0-484 102-870 399-1092 841-210 419-208 947 5 1372 142 285 353 504 654 680l126 73v4266c0 2729 4 4289 10 4333 21 140 75 249 178 352 67 67 179 133 262 153 25 6 54 14 65 16 38 9 220-3 268-18z" transform="matrix(.1 0 0 -.1 0 1280)"/><path class="st0" d="M2830 5136V3183l-77-28c-436-154-766-531-864-985-33-153-33-402-1-549 122-545 540-950 1082-1047 125-22 335-22 460 0 418 75 778 343 967 721 54 107 87 200 114 326 33 148 33 397 0 549-98 454-428 831-863 985l-78 28v3907h-740V5136z" transform="matrix(.1 0 0 -.1 0 1280)"/></svg>