<svg version="1.1" id="Слой_1" xmlns="http://www.w3.org/2000/svg" x="0" y="0" viewBox="0 0 512 512" xml:space="preserve"><style>.st0{fill:#878787}</style><path class="st0" d="M449.2 167.4h-43.5c-4.1 0-7.5 3.4-7.5 7.5s3.4 7.5 7.5 7.5h43.5c4.1 0 7.5-3.4 7.5-7.5s-3.3-7.5-7.5-7.5zm-43.5-45.7h19.8c4.1 0 7.5-3.4 7.5-7.5s-3.4-7.5-7.5-7.5h-19.8c-4.1 0-7.5 3.4-7.5 7.5s3.4 7.5 7.5 7.5zm0-60.8h26.8c4.1 0 7.5-3.4 7.5-7.5s-3.4-7.5-7.5-7.5h-26.8c-4.1 0-7.5 3.4-7.5 7.5s3.4 7.5 7.5 7.5zM432.5 289h-26.8c-4.1 0-7.5 3.4-7.5 7.5s3.4 7.5 7.5 7.5h26.8c4.1 0 7.5-3.4 7.5-7.5s-3.4-7.5-7.5-7.5zm-26.8-45.8h19.8c4.1 0 7.5-3.4 7.5-7.5s-3.4-7.5-7.5-7.5h-19.8c-4.1 0-7.5 3.4-7.5 7.5 0 4.2 3.4 7.5 7.5 7.5zm-223.6-80.4c12.4 6.6 13.2 8.1 16.5 8.1 7.7 0 10.4-10.3 3.7-14l-12.8-7.2 9.4-3.9c3.8-1.6 5.7-6 4.1-9.8s-5.9-5.7-9.8-4.1l-20.4 8.4-26.8-15 26.8-15c21 8.4 20.7 8.9 23.3 8.9 8.2 0 10.4-11.3 2.8-14.4l-9.4-3.9 12.8-7.2c3.6-2 4.9-6.6 2.9-10.2s-6.6-4.9-10.2-2.9l-12.8 7.2 1.6-10c.7-4.1-2.1-7.9-6.2-8.6-4.1-.7-7.9 2.1-8.6 6.2l-3.5 21.8-27.5 15.3V81.2l17.3-13.7c3.2-2.6 3.8-7.3 1.2-10.5s-7.3-3.8-10.5-1.2l-8 6.3V47.4c0-4.1-3.4-7.5-7.5-7.5s-7.5 3.4-7.5 7.5V62l-8-6.3c-3.2-2.6-8-2-10.5 1.2-2.6 3.2-2 8 1.2 10.5L123 81.2v31.3L95.7 97.2l-3.5-21.8c-.7-4.1-4.5-6.9-8.6-6.2-4.1.7-6.9 4.5-6.2 8.6l1.6 10-12.8-7.2c-3.6-2-8.2-.7-10.2 2.9s-.7 8.2 2.9 10.2l12.8 7.2-9.4 3.9c-3.8 1.6-5.7 5.9-4.1 9.8 1.6 3.8 6 5.7 9.8 4.1l20.4-8.4 26.8 15-26.8 15-20.5-8.3c-3.8-1.6-8.2.3-9.8 4.1s.3 8.2 4.1 9.8l9.4 3.9-12.8 7.2c-6.7 3.8-4 14 3.7 14 3.3 0 4.1-1.5 16.5-8.1l-1.6 10c-.7 4.6 2.8 8.7 7.4 8.7 3.6 0 6.8-2.6 7.4-6.3l3.5-21.8 27.4-15.3v31.3l-17.3 13.8c-3.2 2.6-3.8 7.3-1.2 10.5 2.6 3.2 7.3 3.8 10.5 1.2l8-6.3v14.7c0 4.1 3.4 7.5 7.5 7.5s7.5-3.4 7.5-7.5v-14.7c6.9 5 8.4 8 12.6 8 7.1 0 10.2-9 4.7-13.4L138 169.5v-31.3l27.4 15.3 3.5 21.8c.6 3.7 3.8 6.3 7.4 6.3 4.6 0 8.2-4.2 7.4-8.7l-1.6-10.1z"/><path class="st0" d="M373.1 309.8v-242c0-37.4-30.4-67.8-67.8-67.8s-67.8 30.4-67.8 67.8v242c-28 21.2-44.6 54.5-44.6 89.7 0 62 50.5 112.5 112.5 112.5s112.5-50.5 112.5-112.5c-.1-35.2-16.7-68.5-44.8-89.7zM305.3 497c-53.8 0-97.5-43.7-97.5-97.5 0-31.7 15.5-61.5 41.5-79.8 2-1.4 3.2-3.7 3.2-6.1V67.8c0-29.1 23.7-52.8 52.8-52.8s52.8 23.7 52.8 52.8v245.8c0 2.4 1.2 4.7 3.2 6.1 26 18.3 41.5 48.1 41.5 79.8 0 53.8-43.7 97.5-97.5 97.5z"/><path class="st0" d="M338.1 324.7V67.8c0-18.1-14.7-32.8-32.8-32.8s-32.8 14.7-32.8 32.8V91c0 4.1 3.4 7.5 7.5 7.5s7.5-3.4 7.5-7.5V67.8c0-9.8 8-17.8 17.8-17.8s17.8 8 17.8 17.8v222.3h-35.7v-169c0-4.1-3.4-7.5-7.5-7.5s-7.5 3.4-7.5 7.5v203.5c-28.4 12.8-47.2 41.5-47.2 72.9 0 44.1 35.9 80 80 80s80-35.9 80-80c.1-31.3-18.6-60-47.1-72.8zm-32.8 137.9c-35.8 0-65-29.2-65-65 0-27 17-51.5 42.3-60.9 2.9-1.1 4.9-3.9 4.9-7v-24.6h35.7v24.6c0 3.1 1.9 5.9 4.9 7 25.3 9.4 42.3 33.9 42.3 60.9-.1 35.9-29.2 65-65.1 65z"/></svg>