<svg xmlns="http://www.w3.org/2000/svg" viewBox="0 0 217.16 206.05"><defs><style>.cls-1{fill:#0f6f12;}</style></defs><g id="Слой_2" data-name="Слой 2"><g id="Layer_1" data-name="Layer 1"><path class="cls-1" d="M54.26,206.05a54.26,54.26,0,1,1,54.26-54.26A54.32,54.32,0,0,1,54.26,206.05Zm0-98.52a44.26,44.26,0,1,0,44.26,44.26A44.31,44.31,0,0,0,54.26,107.53Z"/><path class="cls-1" d="M60.71,164.09h-13l-2.26,7.33H35.35l14.41-39.27h8.9l14.51,39.27H63ZM50,156.78h8.44l-4.23-13.62Z"/><path class="cls-1" d="M94.8,70.14a16.83,16.83,0,0,1-2.59,8.48,15.69,15.69,0,0,1-6.65,5.7,22.65,22.65,0,0,1-9.78,2q-9.06,0-14.28-5.91T56.29,63.75V61.48a27.81,27.81,0,0,1,2.35-11.83,17.89,17.89,0,0,1,6.78-7.84,18.93,18.93,0,0,1,10.23-2.76q8.37,0,13.46,4.41T94.89,55.6h-11c-.09-2.8-.79-4.81-2.12-6s-3.35-1.83-6.07-1.83a6.61,6.61,0,0,0-6.06,3.09c-1.29,2.07-2,5.36-2,9.89V64q0,7.36,1.84,10.52t6.37,3.16a8.49,8.49,0,0,0,5.84-1.8q2-1.8,2.15-5.71Z"/><path class="cls-1" d="M192.16,140.72a5,5,0,0,1-5-5,40.37,40.37,0,0,0-40.33-40.33,5,5,0,0,1,0-10,50.38,50.38,0,0,1,50.33,50.33A5,5,0,0,1,192.16,140.72Z"/><path class="cls-1" d="M146.83,206.05a69.9,69.9,0,0,1-40.24-12.65,5,5,0,0,1,5.73-8.2A60.33,60.33,0,1,0,146.83,75.39a60.52,60.52,0,0,0-49.18,25.38A5,5,0,0,1,89.5,95a70.33,70.33,0,1,1,57.33,111.08Z"/><path class="cls-1" d="M160.39,123.39v-7.31H133.28v39.27h27.05v-7.28H142.75v-9.38h14.89v-7H142.75v-8.28Z"/><path class="cls-1" d="M25.6,96.51A5,5,0,0,1,21.26,94,62.7,62.7,0,1,1,137.6,53.37a5,5,0,1,1-9.89,1.48A52.7,52.7,0,1,0,29.92,89a5,5,0,0,1-4.32,7.5Z"/></g></g></svg>