<svg version="1.1" id="Capa_1" xmlns="http://www.w3.org/2000/svg" x="0" y="0" viewBox="0 0 512 512" xml:space="preserve"><style>.st0{fill:#0f6f12}</style><path class="st0" d="M256 255.3c-17.6 0-31.9 14.3-31.9 31.9S238.4 319 256 319s31.9-14.3 31.9-31.9-14.3-31.8-31.9-31.8zm0 43.7c-6.6 0-11.9-5.3-11.9-11.9s5.3-11.9 11.9-11.9c6.6 0 11.9 5.3 11.9 11.9S262.6 299 256 299zm-45.8 26c-17.6 0-31.9 14.3-31.9 31.9s14.3 31.9 31.9 31.9 31.9-14.3 31.9-31.9-14.3-31.9-31.9-31.9zm0 43.8c-6.6 0-11.9-5.3-11.9-11.9s5.3-11.9 11.9-11.9c6.6 0 11.9 5.3 11.9 11.9 0 6.6-5.3 11.9-11.9 11.9zm91.6-43.8c-17.6 0-31.9 14.3-31.9 31.9s14.3 31.9 31.9 31.9 31.9-14.3 31.9-31.9-14.3-31.9-31.9-31.9zm0 43.8c-6.6 0-11.9-5.3-11.9-11.9s5.3-11.9 11.9-11.9 11.9 5.3 11.9 11.9c0 6.6-5.4 11.9-11.9 11.9zm-137.4 26c-17.6 0-31.9 14.3-31.9 31.9s14.3 31.9 31.9 31.9 31.9-14.3 31.9-31.9c0-17.6-14.3-31.9-31.9-31.9zm0 43.8c-6.6 0-11.9-5.3-11.9-11.9s5.3-11.9 11.9-11.9 11.9 5.3 11.9 11.9c0 6.6-5.3 11.9-11.9 11.9zm91.6-43.8c-17.6 0-31.9 14.3-31.9 31.9s14.3 31.9 31.9 31.9 31.9-14.3 31.9-31.9c0-17.6-14.3-31.9-31.9-31.9zm0 43.8c-6.6 0-11.9-5.3-11.9-11.9s5.3-11.9 11.9-11.9c6.6 0 11.9 5.3 11.9 11.9 0 6.6-5.3 11.9-11.9 11.9zm91.6-43.8c-17.6 0-31.9 14.3-31.9 31.9s14.3 31.9 31.9 31.9 31.9-14.3 31.9-31.9c0-17.6-14.3-31.9-31.9-31.9zm0 43.8c-6.6 0-11.9-5.3-11.9-11.9s5.3-11.9 11.9-11.9 11.9 5.3 11.9 11.9c0 6.6-5.3 11.9-11.9 11.9z"/><path class="st0" d="M482 83.4c-39.9-39.9-104.9-39.9-144.8 0L256.1 164l-81.3-80.6c-39.9-40-104.9-40-144.8 0-40 39.9-40 104.9 0 144.8l87.6 87.6c2 2 4.5 2.9 7.1 2.9 2.6 0 5.1-1 7.1-2.9l124.4-123.7 124.2 123.7c2 1.9 4.5 2.9 7.1 2.9 2.6 0 5.1-1 7.1-2.9l87.6-87.6C522 188.3 522 123.3 482 83.4zM124.7 294.6l-16.2-16.2 69.6-69.6c3.9-3.9 3.9-10.2 0-14.1-3.9-3.9-10.2-3.9-14.1 0l-69.6 69.6L44.1 214C12 181.9 12 129.6 44.1 97.5c16.1-16.1 37.2-24.1 58.3-24.1 21.1 0 42.2 8 58.3 24.1L242 178 124.7 294.6zm343.2-80.5l-80.6 80.6-117-116.6 16.4-16.3 69.7 69.7c2 2 4.5 2.9 7.1 2.9s5.1-1 7.1-2.9c3.9-3.9 3.9-10.2 0-14.1l-69.7-69.7 50.4-50.1c32.1-32.1 84.4-32.1 116.6 0 32.1 32 32.1 84.3 0 116.5z"/><path class="st0" d="M396.6 243.3c-.5-.5-1-.9-1.5-1.2-.5-.4-1.1-.7-1.7-.9-.6-.2-1.2-.4-1.9-.6-1.3-.3-2.6-.3-3.9 0-.6.1-1.3.3-1.9.6-.6.2-1.2.6-1.7.9-.5.4-1.1.8-1.5 1.2s-.9 1-1.2 1.5c-.4.5-.7 1.1-.9 1.7-.2.6-.4 1.2-.6 1.9s-.2 1.3-.2 1.9.1 1.3.2 2c.1.6.3 1.3.6 1.9.2.6.6 1.2.9 1.7.4.5.8 1.1 1.2 1.5s1 .9 1.5 1.2c.5.4 1.1.7 1.7.9s1.2.4 1.9.6c.6.1 1.3.2 1.9.2.7 0 1.3-.1 2-.2.6-.1 1.3-.3 1.9-.6.6-.2 1.2-.6 1.7-.9.5-.4 1.1-.8 1.5-1.2.5-.5.9-1 1.2-1.5.4-.5.7-1.1.9-1.7.2-.6.4-1.2.6-1.9.1-.6.2-1.3.2-2 0-2.6-1.1-5.2-2.9-7zm-189.9-69.4c-.1-.6-.3-1.3-.6-1.9-.2-.6-.6-1.2-.9-1.7-.4-.6-.8-1.1-1.2-1.5s-1-.9-1.5-1.2c-.6-.4-1.1-.7-1.7-.9-.6-.2-1.2-.4-1.9-.6-1.3-.3-2.6-.3-3.9 0-.6.1-1.3.3-1.9.6-.6.2-1.2.6-1.7.9-.5.4-1.1.8-1.5 1.2-.5.5-.9 1-1.2 1.5-.4.5-.7 1.1-.9 1.7-.2.6-.4 1.2-.6 1.9s-.2 1.3-.2 1.9.1 1.3.2 2c.1.6.3 1.3.6 1.9.2.6.6 1.2.9 1.7.4.6.8 1.1 1.2 1.5.5.5 1 .9 1.5 1.2.6.4 1.1.7 1.7.9.6.2 1.2.4 1.9.6.6.1 1.3.2 2 .2 2.6 0 5.2-1.1 7.1-2.9.5-.5.9-1 1.2-1.5.4-.5.7-1.1.9-1.7.2-.6.4-1.2.6-1.9.1-.6.2-1.3.2-2-.1-.6-.1-1.2-.3-1.9zM146.6 185l-21.4-57.4c-.4-1.1-.8-1.7-1.5-2.4-4-4-15 .8-18.2 4-2.3 2.3-3 4.9-1.8 7.4l15.7 36.1L83.2 157c-2.5-1.1-5.2-.4-7.5 1.9-4.4 4.4-8 14.2-4.1 18.1.6.6 1.8 1.3 2.7 1.6l57.4 21.4c3.2 1.2 7.6-1.7 10.4-4.5 3.1-3.2 5.6-7.6 4.5-10.5z"/></svg>