<svg xmlns="http://www.w3.org/2000/svg" viewBox="0 0 191.1 191.1"><path d="M177.2 100.8h-4.3l-14.4-45.2h1.4c1.9 0 3.5-1.6 3.5-3.5s-1.6-3.5-3.5-3.5H97.3V27.3c6-1.6 10.4-6.9 10.4-13.4 0-7.7-6.2-13.9-13.9-13.9S79.9 6.2 79.9 13.9c0 6.5 4.4 11.9 10.4 13.4v21.3H27.8c-1.9 0-3.5 1.6-3.5 3.5s1.6 3.5 3.5 3.5h4.9l-14.3 45.2h-4.5c-1.9 0-3.5 1.6-3.5 3.5 0 15.3 12.5 27.8 27.8 27.8S66 119.6 66 104.2c0-1.9-1.6-3.5-3.5-3.5h-4.3L43.8 55.6h46.5v111.5c-9.8 1.7-17.4 10.2-17.4 20.5 0 1.9 1.6 3.5 3.5 3.5h34.7c1.9 0 3.5-1.6 3.5-3.5 0-10.3-7.5-18.9-17.4-20.5V55.6h50.1L133 100.8h-4.5c-1.9 0-3.5 1.6-3.5 3.5 0 15.3 12.5 27.8 27.8 27.8s27.8-12.5 27.8-27.8c.1-2-1.5-3.5-3.4-3.5zm-118.4 6.9c-1.7 9.8-10.2 17.4-20.6 17.4s-18.9-7.5-20.6-17.4h41.2zm-7.9-6.9H25.7L38.2 61l12.7 39.8zm36-86.9c0-3.8 3.1-6.9 6.9-6.9s6.9 3.1 6.9 6.9-3.1 6.9-6.9 6.9c-3.8 0-6.9-3.1-6.9-6.9zm20.4 170.3H80.4c1.5-5.9 6.9-10.4 13.3-10.4h.2c6.4 0 11.8 4.4 13.4 10.4zM152.9 61l12.7 39.7h-25.3L152.9 61zm0 64.1c-10.3 0-18.9-7.5-20.6-17.4h41.1c-1.6 9.9-10.2 17.4-20.5 17.4z" fill="#0f6f13"/></svg>