<svg xmlns="http://www.w3.org/2000/svg" viewBox="0 0 108.44 198.47"><g data-name="Слой 2"><path d="M9.55 107.81a4.82 4.82 0 01-3.44-1.42l-4.13-4.13a4.88 4.88 0 010-6.88L95.44 1.92a4.88 4.88 0 016.88 0l4.13 4.13a4.88 4.88 0 010 6.88l-93.46 93.46a4.82 4.82 0 01-3.44 1.42z"/><path d="M98.88 1a4.33 4.33 0 013.09 1.28l4.13 4.12a4.38 4.38 0 010 6.18l-93.46 93.45a4.36 4.36 0 01-6.17 0l-4.11-4.12a4.36 4.36 0 010-6.18L95.79 2.28A4.33 4.33 0 0198.88 1m0-1a5.32 5.32 0 00-3.79 1.57L1.63 95.03a5.35 5.35 0 000 7.58l4.13 4.13a5.36 5.36 0 007.58 0l93.46-93.46a5.35 5.35 0 000-7.58l-4.13-4.13A5.32 5.32 0 0098.88 0z"/><path d="M98.88 197.96a4.67 4.67 0 01-3.33-1.38L1.88 102.91a4.71 4.71 0 010-6.66l4.34-4.35a4.71 4.71 0 016.66 0l93.68 93.68a4.71 4.71 0 010 6.66l-4.35 4.34a4.67 4.67 0 01-3.33 1.38z"/><path d="M9.55 91.02a4.18 4.18 0 013 1.24l93.67 93.67a4.2 4.2 0 010 6l-4.34 4.34a4.22 4.22 0 01-6 0L2.23 102.56a4.22 4.22 0 010-6l4.34-4.34a4.19 4.19 0 013-1.24m0-1a5.17 5.17 0 00-3.68 1.53l-4.35 4.34a5.22 5.22 0 000 7.37l93.67 93.68a5.24 5.24 0 007.38 0l4.34-4.35a5.2 5.2 0 000-7.37L13.24 91.55a5.19 5.19 0 00-3.69-1.53z"/></g></svg>