<svg xmlns="http://www.w3.org/2000/svg" viewBox="0 0 108.44 198.47"><g data-name="Слой 2"><path d="M9.55 197.96a4.82 4.82 0 01-3.44-1.42l-4.13-4.13a4.88 4.88 0 010-6.88l93.46-93.46a4.88 4.88 0 016.88 0l4.13 4.09a4.86 4.86 0 010 6.88l-93.46 93.5a4.82 4.82 0 01-3.44 1.42z"/><path d="M98.88 91.16a4.33 4.33 0 013.09 1.28l4.13 4.13a4.37 4.37 0 010 6.17l-93.46 93.42a4.38 4.38 0 01-6.17 0l-4.11-4.1a4.36 4.36 0 010-6.18l93.45-93.45a4.33 4.33 0 013.07-1.27m0-1a5.32 5.32 0 00-3.79 1.57L1.63 185.16a5.35 5.35 0 000 7.58l4.13 4.13a5.36 5.36 0 007.58 0l93.46-93.46a5.35 5.35 0 000-7.58l-4.13-4.13a5.32 5.32 0 00-3.79-1.54z"/><path d="M98.88 107.94a4.67 4.67 0 01-3.33-1.38L1.88 12.89a4.72 4.72 0 010-6.67l4.34-4.34a4.71 4.71 0 016.66 0l93.68 93.67a4.71 4.71 0 010 6.66l-4.35 4.35a4.67 4.67 0 01-3.33 1.38z"/><path d="M9.55 1a4.21 4.21 0 013 1.23l93.67 93.67a4.2 4.2 0 010 6l-4.34 4.35a4.22 4.22 0 01-6 0L2.23 12.53a4.22 4.22 0 010-6l4.34-4.34a4.22 4.22 0 013-1.23m0-1a5.2 5.2 0 00-3.68 1.52L1.52 5.87a5.22 5.22 0 000 7.37l93.67 93.67a5.21 5.21 0 007.38 0l4.34-4.34a5.2 5.2 0 000-7.37L13.24 1.52A5.23 5.23 0 009.55 0z"/></g></svg>