<svg version="1.1" id="Слой_1" xmlns="http://www.w3.org/2000/svg" x="0" y="0" viewBox="0 0 1000 1000" xml:space="preserve"><style>.st0{fill:#a3a3a3}</style><path class="st0" d="M805.6 696.9c-48.4-39.9-160.4-60.8-191.4-74-44.8-19.1-12.9-45.2 16.4-70.2 29.3-24.9 68.6-83.4 68.6-180.7S631.3 176.2 507 176.2c-115.1 0-196.3 83.4-192.5 195.8 3.5 104.8 34.7 134.6 47.6 154.6 25.8 39.9 62.1 47.3 62.1 73.6 0 33.2-105.3 34.5-188.3 78.1-84.1 44.3-72.9 145.4-72.9 145.4h688.7c3.1-17.7 2.4-86.8-46.1-126.8z"/><path class="st0" d="M276.2 701.5l.7-1.3 140.6-40.6c25.9-4.6 45.7-29.2 45.7-58.9 0-21.8-10.7-40.6-26.5-51.1-47.2-36.6-82.7-95.9-82.7-169 0-2.9.2-5.8.4-8.7-.1-1.9-.6-3.7-.6-5.6 0-84.1 68.3-152.4 152.6-152.4S659 282.1 659 366.3c0 1.9-.5 3.7-.6 5.6.2 2.9.4 5.7.4 8.7 0 73.1-34 131.6-82.7 169-14.9 14.4-26.5 29.4-26.5 51.1 0 29.8 19.8 54.3 45.7 58.9l140.6 40.6.7 1.3c37.4 12.4 66 44.2 72.9 83.5H203.3c6.9-39.3 35.5-71.1 72.9-83.5z"/><path class="st0" d="M500 10C229.4 10 10 229.4 10 500s219.4 490 490 490 490-219.4 490-490S770.6 10 500 10zm0 941C250.9 951 49 749.1 49 500S250.9 49 500 49s451 201.9 451 451-201.9 451-451 451z"/></svg>