<svg text-rendering="geometricPrecision" shape-rendering="geometricPrecision" image-rendering="optimizeQuality" xmlns="http://www.w3.org/2000/svg" viewBox="0 0 8192 8192"><path d="M6286.6 2530.7c-56.3-116-109.8-233.1-136.4-357.6-21.1-98.8-25.2-202.4-.3-313.6-46.4 81.8-91.4 164.3-134.7 248.1-178.5 345.5-369.9 769.2-112.1 1128.2 75.8 105.5 184.8 175.8 322.8 157 119-16.2 217.7-111.9 235.5-276.5 23.3-217.2-84.5-399.5-174.8-585.6zm-5578.1-55.6c-260.7-452-454.8-927.8-659.4-1425.1 119.1 468.1 243.8 930.6 436.2 1391.7l223.2 33.4zm838.9-313.8c-70.8-517-179.9-1034.7-322.8-1553.1 206.1 431 355.5 901.4 478.8 1390l-156 163.1zM507.1 412.6c225.9 840.1 125.8 938.1 215.3 1614.3 15.5 117.1 32.5 227.3 89.6 316 32.4 50.3 77.8 93.7 143.1 127.5 270.9 140.3 431.2-16.8 493.3-273 7.2-85.1-16.1-179.8-63.9-278.4-63.1-130-168.7-266.8-303.5-397.3-342.4-331.5-395.5-659.2-573.9-1109.1zM2854 7779.3c-80.5-405.6-248.6-707.6-458.3-992.2l559.4-143.6c9.5 325.3 30.2 643 86 956L2854 7779.3zM1709.7 6079.6c-127.8-16.8-255-36.7-373.6-83.1-94.1-36.8-182.8-90.4-262-172.5 42.7 83.7 86.8 166.8 132.9 249 190.1 339.3 438.4 732.3 880 714.8 129.8-5.1 248.5-57.4 308.8-182.9 52-108.3 26.5-243.4-101.1-348.8-168.3-139-379.9-149.4-585-176.5zm-284-900.2c-127.3-20.6-253.8-44.2-370.9-94.1-93-39.6-180-95.7-256.7-180.1 40.2 84.9 81.8 169.3 125.5 252.9 179.9 344.8 416.4 745 858.4 740.6 129.9-1.3 250.1-50 314.1-173.7 55.2-106.7 33.7-242.5-90.7-351.6-164.3-144.1-375.5-160.8-579.7-194zm-254.3-827.2c-126.1-27-251.3-57-365.7-112.7-90.9-44.2-175-104.7-247.3-192.9 35.9 86.9 73.2 173.2 112.5 258.9 162.3 353.4 378.3 765 820 783 129.8 5.3 252.3-37.4 322.5-157.7 60.5-103.8 45.9-240.5-72.9-355.8-156.8-152.2-366.9-179.4-569.1-222.8zm-303.7-870c-127-21.9-253.4-46.8-369.9-97.9-92.6-40.6-179-97.6-254.9-182.8 39.3 85.4 80.1 170.1 122.8 254.1 176.4 346.6 408.7 749.2 850.8 749.4 129.9 0 250.6-47.5 315.9-170.5 56.3-106.1 36.2-242.1-87.1-352.6-162.8-145.6-373.8-164.4-577.6-199.7zM597 2632.7c-124.6-33.3-248.1-69.5-359.6-130.8-88.6-48.7-169.5-113.3-237.4-205 31.5 88.5 64.4 176.7 99.4 264.1 144.5 361.1 339.6 783 779.8 823 129.4 11.7 253.9-24.7 329.9-141.3 65.6-100.6 57.9-237.9-55-359-148.9-159.8-357.3-197.6-557.1-251zm2369.6 2976.5c86.9-95.2 171.5-192.3 232.3-304.1 48.3-88.8 81.7-186.9 89.4-300.6 21.2 91.5 41 183.5 58.7 276.1 73 382 136.1 842.5-213 1113.6-102.6 79.7-227.1 116.1-354.1 58.9-109.5-49.3-177-169.2-147.2-332 39.3-215 194.5-359.2 333.9-511.9zm-307.5-860.7c87-95.2 171.5-192.3 232.3-304.1 48.3-88.8 81.7-186.9 89.4-300.6 21.2 91.5 41 183.5 58.7 276.1 73 382 136.1 842.5-213 1113.6-102.6 79.7-227.1 116-354.1 58.9-109.5-49.4-177-169.2-147.2-332 39.3-215 194.4-359.2 333.9-511.9zm-307.6-860.8c86.9-95.2 171.5-192.3 232.3-304.1 48.3-88.8 81.7-186.9 89.4-300.6 21.2 91.5 41 183.5 58.7 276.1 73 382 136.1 842.5-213 1113.6-102.6 79.7-227.1 116.1-354.1 58.8-109.5-49.3-177-169.2-147.2-332 39.3-214.8 194.5-359 333.9-511.8zm-292.7-864.6c86.9-95.2 171.5-192.3 232.3-304.1 48.3-88.8 81.7-186.9 89.4-300.6 21.2 91.5 41 183.5 58.7 276.1 73 382 136.1 842.5-213 1113.6-102.6 79.7-227.1 116.1-354.1 58.9-109.5-49.3-177-169.2-147.2-332 39.3-215 194.5-359.1 333.9-511.9zm-318.4-862.9c82.1-99.4 161.7-200.6 216.8-315.3 43.8-91.1 72.2-190.7 74.2-304.7 25.8 90.4 50.1 181.2 72.4 272.8 92 377.8 178.1 834.7-157.1 1122.8-98.5 84.7-221 127.3-350.7 76.5-111.9-43.8-185.2-160.1-163.7-324.2 28.7-216.5 176.4-368.3 308.1-527.9zM7215.2 3080c360-377.8 660.7-794.4 976.8-1229.4-226.1 426.8-456.4 846.9-752 1249.6l-224.8-20.2zm-741.4-502.8c190.7-485.7 418.8-963.1 679.9-1433.2-301.9 370.2-558 792.2-793 1237.9l113.1 195.3zm1423.3-1454.1c-417.6 763.1-343.4 882-589.8 1518-42.7 110.1-85.2 213.2-161.6 286-43.4 41.2-97.7 72.7-169.1 90.2-296.4 72.4-415.1-118-415-381.7 13-84.3 58-170.9 127.8-255.5 91.9-111.5 226.9-219.5 388.6-314.5 410.9-241.4 539.7-547.4 819.1-942.5zM3879.5 7728.7c173.9-375.2 408.5-629 679.3-856.1L4049 6601.1c-85.9 313.9-181 617.7-309 908.7l139.5 218.9zm1512.7-1381.9c128.2 13.8 256.5 24.5 382.6 7.4 100.2-13.6 199-44.7 295.2-105.8-61.2 71.3-123.7 141.6-187.9 210.7-264.7 284.9-598.6 608.3-1023.8 487.1-124.9-35.6-228-114.4-257-250.6-25-117.5 31.7-242.8 180.5-315.1 196.7-95.6 404.8-55.8 610.4-33.7zm488.3-807.9c128.5 10 257.1 16.9 382.6-4 99.7-16.6 197.5-50.6 292-114.5-59.1 73.1-119.5 145.2-181.5 216.1-256.1 292.6-580.3 625.8-1008.8 517.4-125.9-31.9-231.2-107.6-264.3-242.9-28.5-116.7 24.4-243.6 171.1-320.3 193.5-101.3 402.7-67.7 608.9-51.8zm442.2-743.9c128.9 3.5 257.6 3.9 382-23.3 98.8-21.6 194.7-60.5 285.8-129.1-55.3 75.9-112 151.1-170.4 225-241.1 305.2-548.1 654.2-981.5 567.5-127.4-25.5-236.4-95.8-276.2-229.2-34.4-115.1 12.1-244.5 154.7-328.6 188.3-110.9 398.9-87.9 605.6-82.3zm500.3-773.8c128.6 8.6 257.3 14.2 382.6-7.9 99.6-17.6 197-52.6 290.8-117.5-58.3 73.7-117.9 146.4-179.3 218-253.1 295.2-573.9 631.7-1003.5 527.7-126.3-30.6-232.3-105.2-266.8-240.1-29.7-116.4 21.9-243.8 167.8-322.1 192.6-103.4 402.1-72 608.4-58.1zm463.4-761.8c128.9-3 257.5-9 380.3-42.3 97.5-26.5 191.5-70.2 279-143.3-51.5 78.6-104.3 156.5-158.9 233.3-225.5 316.8-514.7 680.8-951.9 615.9-128.5-19.1-240.9-83.9-287.3-215.1-40.1-113.3-.1-244.8 138.1-335.9 182.4-120.2 393.9-107.8 600.7-112.6zM4281.8 5593.2c-62.1-113-121.3-227.3-154.1-350.3-26-97.7-35.3-200.8-16-313.2-42.2 84-83.1 168.7-122.1 254.5-161 354-330.9 786.7-55.5 1132.4 80.9 101.6 193.3 166.4 330.2 140.7 118.1-22.1 211.9-122.7 221.3-287.9 12.5-218.1-104.3-394.8-203.8-576.2zm501.8-763.9c-62.1-113-121.3-227.3-154.1-350.3-26-97.7-35.3-200.8-16-313.2-42.2 84-83.1 168.7-122.1 254.5-161 354-330.9 786.7-55.5 1132.4 80.9 101.6 193.3 166.4 330.2 140.7 118.1-22.1 211.9-122.7 221.4-287.9 12.4-218.2-104.4-394.9-203.9-576.2zm501.8-764c-62-113-121.3-227.3-154.1-350.3-26-97.7-35.3-200.8-16-313.2-42.2 84-83.1 168.7-122.1 254.5-161 354-330.9 786.7-55.5 1132.4 81 101.6 193.3 166.4 330.2 140.7 118.1-22.1 211.9-122.7 221.3-287.9 12.6-218.1-104.2-394.8-203.8-576.2zm488.3-771.3c-62.1-113-121.3-227.3-154.1-350.3-26-97.7-35.3-200.8-16-313.2-42.2 84-83.1 168.7-122.1 254.5-161 354-330.9 786.7-55.5 1132.4 81 101.6 193.3 166.4 330.2 140.7 118.1-22.1 211.9-122.7 221.3-287.9 12.6-218.1-104.2-394.8-203.8-576.2z" fill-rule="evenodd" clip-rule="evenodd" fill="#878787"/></svg>