<svg xmlns="http://www.w3.org/2000/svg" viewBox="0 0 282.37 326.4"><path d="M91.43 222.25c5.77-10.08 14.82-17.69 26.16-20.62a47.06 47.06 0 0120.14-.63A227.49 227.49 0 01157 164.42c-3.89-.37-7.78-.78-11.65-1.31a370.87 370.87 0 01-57.71-12.84A254.63 254.63 0 0161 140.71c-6.54-2.81-13.06-6-18.63-10.47-4.83-3.88-9-10.45-5.83-16.71l.06-.12c-5.82-.52-11.85-1.58-17-4.46s-9.5-9.06-7.2-15.13c1.24-3.26 4-5.36 7.08-6.76-1.05-.28-2.1-.58-3.14-.91a68.56 68.56 0 01-5-1.79 162.35 162.35 0 00-8.86 31.27 175.09 175.09 0 00-1.6 47.62c7.73 2.82 12.94 4.45 12.94 4.45s-4.42 34.48 8.49 66.91c16 40.27 47.08 76 82.05 91.79a187.14 187.14 0 01-15.6-37.4c-6.35-21.51-8.91-46.51 2.67-66.75zM19.83 66.2q33-5.79 66.25-9.82c23.41-2.86 46.92-5.12 70.47-6.38 20.2-1.11 40.53-1.66 60.73-.28a174.48 174.48 0 0119.54 2.15 159 159 0 0123.93-14.45 167.73 167.73 0 0119.89-8.27l1.73-.58A137.57 137.57 0 01260 0c-5.3 12.34-8.58 20.51-8.58 20.51s-64-4.29-119.09 1.13C96.27 25.18 64 30.6 41.41 34.93A182.15 182.15 0 0030 49.63 171.85 171.85 0 0019.83 66.2z" fill="#c3161b" data-name="Слой 2"/></svg>