<?xml version="1.0" encoding="utf-8"?>
<!-- Generator: Adobe Illustrator 24.1.0, SVG Export Plug-In . SVG Version: 6.00 Build 0)  -->
<svg version="1.1" id="Capa_1" xmlns="http://www.w3.org/2000/svg" xmlns:xlink="http://www.w3.org/1999/xlink" x="0px" y="0px"
	 viewBox="0 0 451.7 451.7" style="enable-background:new 0 0 451.7 451.7;" xml:space="preserve">
<style type="text/css">
	.st0{fill:#C3161B;}
	.st1{fill:#FFFFFF;}
	.st2{fill:#3F4448;}
</style>
<path class="st0" d="M446.3,367.4L262.9,41.7c-15.6-28.4-58.3-28.4-74,0L5.4,367.4c-15.6,28.4,4.3,64,37,64h365.5
	C442.1,430,462,395.8,446.3,367.4z"/>
<path class="st1" d="M225.9,63l183.5,325.7H42.4L225.9,63L225.9,63z"/>
<g>
	<path class="st2" d="M196,212.4l11.4,75.4c1.4,8.5,8.5,15.6,18.5,15.6l0,0c8.5,0,17.1-7.1,18.5-15.6l11.4-75.4
		c2.8-18.5-11.4-34.1-29.9-34.1l0,0C207.4,178.2,194.6,193.9,196,212.4z"/>
	<circle class="st2" cx="225.9" cy="336.1" r="17.1"/>
</g>
</svg>
