<svg xmlns="http://www.w3.org/2000/svg" viewBox="0 0 2500 2032"><path d="M2461.9 800.9c-23.8-62.5-72.7-118.2-132.1-158.5-171.7-109-433.4-116.8-610.3-18.2-96.5 49.2-159.9 146.5-179.6 246.8-35.8 164.7-26.6 360.7 100.3 484.1 148 129.7 363.3 158.4 554.8 105.1 9.1-1.7 37.9-9 57.8-19.6l5.6-2.4c59.5-24.7 116.2-65 158.5-119.5 97.8-142.8 104.5-356.9 45-517.8m-311.8 369.8c-6.8 31.2-27.8 63.6-60.9 75.3-52.7 23.2-124.1 16.8-173-10.4-41-28.7-46.3-76.6-51.5-122-4-89.5-10.5-184.3 14.6-266.1 19.6-50.7 73.8-63.7 122.9-67.5 51.5 0 101.6 7.9 133.4 49.4 19.8 29.8 18.6 68.8 22.5 103.8-1.4 74 5.2 162.2-8 237.5m-1565.4 80.7c-43.6-2.7-92.5 1.2-134.7-4l1.3-455.7 2.7-3.8 130.7-1.3c1.4-74 2.7-153.3-1.4-220.7l-497.9-1.4-82 1.4C2 634.6 2 715 3.3 785.2c45 1.4 87.2 0 130.8 4.1v441.3l-1.3 18.1L2 1251.4c-2.7 71.4-2.7 142.8 0 214.2h582.6l.1-214.2zM2051 1562.8c-55.4 79.3-125.4 155.8-201.9 215.4-2.8 4.1-10.7 2.5-13.2-1.2-33.1-20.7-68.8-37.7-100.5-58.3 42.3-50.6 83.3-101.2 115-157.2h-41.1c-32.8 48.2-67.3 98.8-110.8 141.5-58.2-23.3-111-44.1-170.4-59.8l-6.6-4.9c9.2-26.2 26.4-50.9 31.6-76.8h-35.6l-35.6 70.1c-77.8-16.9-163.8-26-243-31.2-4-11.6 1.2-28.5-4-39h-34.3c-2.7 15.6 4 27.4-4 40.3-81.9 3.8-161.2 13-237.7 28.7l-35.8-69c-13.1 0-27.8-2.5-36.9 1.4l33 76.6-3.9 3.8c-59.2 17.1-117.4 37.5-174.4 61.1l-5.2-2.7c-37.1-40.2-72.8-84.2-101.9-128.3-6.5-22.2-33-9.2-47.5-11.8 31.6 57.2 74 107.8 116.2 159.8-35.6 20.8-71.2 44.1-108.3 61.1-80.8-61.5-151.2-135.6-208.7-219.4-15.9-2.5-26.3-1.4-42.3 0 95.1 148 243.1 277.8 397.7 354.4 0 0 0-1.2 1.4-1.2 1.1 0 3.8 2.4 1.1 3.8 104.4 50.6 215.5 87 332.9 102.6 405.6 53.2 792.7-119.4 1017.2-459.6-14.4-1.5-28.5-1.6-42.5-.2m-550.8 116.9l3.9-2.6c57 13 111 31.2 161.2 55.8-42.3 47.9-96.5 89.6-146.6 124.6-30.3 18.1-60.8 37.8-92.6 53.3l-56.7-24.7 3.9-9c47.7-63.6 89.9-128.6 126.9-197.4m-260.3-39c75.4 1.4 150.7 9.2 220.6 26l1.4 3.9c-36.9 70-83.3 137.7-133.4 201.2-22.6 2.7-43.6-6.3-66.1-7.7l-22.6-2.7c-2.5-76.6-3.9-144.1.1-220.7M985 1664c68.7-13 140-23.4 213.9-23.4l1.4 219.6c-27.8 6.3-58.2 6.3-84.6 13-54.2-63.8-99-132.6-137.3-204.1l6.6-5.1zm-212.8 70.2c51.7-24.7 105.7-43 161.2-57.2l5.4 1.4c38.2 71.4 85.8 138.9 133.4 206.4-18.3 10.5-40.9 16.7-59.4 27.3-89.3-44.1-170.6-103-240.5-174l-.1-3.9zm170.5 222c-111-28.7-214.1-78-309.2-145.4v-4c31.7-19.3 63.5-40.1 97.8-54.6 75.4 74.2 153.2 130 237.8 183.1-6.6 7.9-17.2 15.7-26.4 20.9m490.1 16.7c-140 30-296 31.2-435.9-2.5-2.7-6.5 6.6-7.9 10.5-11.6 122.9-79.3 314.3-79.3 434.7 6.3 3.9 7.8-6.7 5.4-9.3 7.8m126.8-36.2l-62.1 19.4c-10.6-5.2-19.8-13-29.1-20.8l2.7-4c84.6-49.1 161.2-109 233.8-180.4 35.7 14.3 70.1 33.8 101.9 55.8-74.1 58.8-160 97.5-247.2 130M382.5 465.8c32.7-45.2 68.4-88.1 107-128.5 34.2-32.4 66.1-63.6 103.1-87.1 34.4 22 72.6 40.4 105.6 61.1-40.9 50.4-83.2 101.2-113.6 155.6 9.2 4.1 26.4 2.8 39.7 0 33-47.9 68.5-96 111-138.8C792 349 847.6 371 905.8 386.6l5.1 5.2L878 467c14.6 2.8 23.8 1.4 38.3 0 11.9-21.9 21-46.5 34.3-68.7 76.7 17 157.3 26 239.2 28.5 10.5 9.2 2.6 28.6 6.6 40.2h35.6c3.9-12.7-1.3-27.2 3.9-38.8 76.7-4 157.2-11.8 231.5-30l6.4 1.4 35.7 67.4c11.9 0 27.7 2.8 37-2.7l-33.1-75.1 2.8-2.6c60.7-15.6 117.6-38.9 175.7-62.3 41.1 42.8 79.3 93.4 113.7 142.6 14.5 0 29 1.4 39.6-2.7-16.3-29-35.3-56.3-56.8-81.7-17.4-24.9-36.9-48.2-58.2-69.9v-6.7l92.5-53.1 13.3-5.2c80.4 60.9 150.8 134 208.6 216.7 15.9 0 29.1 5.5 42.3-1.1-177.3-264.7-469.2-434.9-784.8-459.4l-1.4 2.5-2.7-2.5c-35.6-3.8-79.4-5.3-117.6-1.5-14.5-1.1-31.6 0-48.8 1.5-317 24.5-608.9 186.9-791.3 463.3 13.1-1.3 29 4 42.2-1.3m548.4-114.1l-5.3 1.1c-54.2-14.1-107.1-31.2-157.3-53.2l2.5-7.8c72.7-68.8 149.3-125.9 233.8-170 19.9 7.8 39.7 14.2 59.5 23.4l-3.9 10.1c-50.2 62.7-89.8 130-129.3 196.4m262.8 35c-36.9 5.2-69.9-1.2-107.1-4-35.5-5.2-80.5-9-116.2-20.8 38.3-71.1 83.3-140 137.4-203.4l84.6 11.5c3.9 67.3 1.3 145.2 1.3 216.7m40.9 1.4c-2.6-69-1.2-145.5 0-216.9 26.5-3.8 55.4-7.8 81.9-11.6 51.5 64.8 101.8 131.2 136.2 202.3-71.4 17.2-144.6 26-218.1 26.2m421.5-91c-51.6 22-104.5 42.8-161.2 54.7-40.9-68.8-85.8-137.6-136.2-204.1 18.5-10.2 41.1-18 60.9-28.3 86 42.8 169.2 103.7 239.1 173.6l-2.6 4.1zm-169.2-222c111 28.6 215.4 77.9 310.5 145.4l-2.6 5.2-91.1 50.6h-6.7c-69.9-69.8-151.8-130.9-235.1-179 2.6-9.2 15.9-15.7 25-22.2m-52.8-13v2.8c-115 82.9-301.2 90.7-422.7 14.1-6.8-5.2-19.9-7.7-21.3-16.8 140.2-32.4 305.2-35 444-.1m-805.9 161c83.3-61 175.7-106.4 273.5-137.6 4-4.1 6.5-7.9 11.8-7.9v2.7c10.5 2.5 18.5-9.2 27.7-1.5 8 6.7 17.3 11.9 23.8 18.3-81.8 50.5-162.5 110.4-236.5 182.9-35.7-12.7-68.6-32.3-100.4-54.4l.1-2.5zM1195 1261.5c-124.2 33.8-259 8-348.8-85.6-10.5-13-17.2-28.4-27.8-41.4l-178.3 1.2c-2.8 105.1-4.1 225.9 0 329.8l198.1-1.3 2.6-62.4c22.6 10.4 45 23.3 67.4 35 137.4 57.2 314.2 70.2 450.4 0 99.2-54.4 152-159.5 137.4-272.7-14.3-110.1-120.1-210.1-227-237.3l-319.8-92.3-23.6-11.7c-10.6-9-17.2-20.6-14.6-35 25.1-42.7 83.3-29.8 126.9-28.6 92.5 13 187.6 44.2 241.8 128.6 58.1 0 125.4 1.1 188.8-1.4 2.7-106.4-1-199.8-2.6-307.6-59.4-1.4-132.1-1.4-191.5 1.4-2.7 15.4 2.5 37.4-4.1 53.1l-60.7-32.5c-145.4-61-348.9-67.4-480.9 27.4-85.9 62.2-112.3 174-89.8 272.6 17.1 93.3 106.9 162.2 192.8 194.5 117.6 41.5 240.4 71.5 359.5 111.7 11.8 5.3 27.6 17 25.1 31.3-.1 11.6-12.1 18.2-21.3 23.2" fill="#878787"/></svg>