<svg xmlns="http://www.w3.org/2000/svg" viewBox="0 0 108.44 198.47"><g id="Слой_2" data-name="Слой 2"><path d="M60.19,108.65a4.82,4.82,0,0,1-3.44-1.42l-4.13-4.13a4.88,4.88,0,0,1,0-6.88L146.08,2.76a4.88,4.88,0,0,1,6.88,0l4.13,4.13a4.88,4.88,0,0,1,0,6.88L63.63,107.23A4.82,4.82,0,0,1,60.19,108.65Z" transform="translate(-50.64 -0.84)"/><path d="M149.52,1.84a4.33,4.33,0,0,1,3.09,1.28l4.13,4.12a4.38,4.38,0,0,1,0,6.18L63.28,106.87a4.36,4.36,0,0,1-6.17,0L53,102.75a4.36,4.36,0,0,1,0-6.18L146.43,3.12a4.33,4.33,0,0,1,3.09-1.28m0-1a5.32,5.32,0,0,0-3.79,1.57L52.27,95.87a5.35,5.35,0,0,0,0,7.58l4.13,4.13a5.36,5.36,0,0,0,7.58,0l93.46-93.46a5.35,5.35,0,0,0,0-7.58l-4.13-4.13A5.32,5.32,0,0,0,149.52.84Z" transform="translate(-50.64 -0.84)"/><path d="M149.52,198.8a4.67,4.67,0,0,1-3.33-1.38L52.52,103.75a4.71,4.71,0,0,1,0-6.66l4.34-4.35a4.71,4.71,0,0,1,6.66,0l93.68,93.68a4.71,4.71,0,0,1,0,6.66l-4.35,4.34A4.67,4.67,0,0,1,149.52,198.8Z" transform="translate(-50.64 -0.84)"/><path d="M60.19,91.86a4.18,4.18,0,0,1,3,1.24l93.67,93.67a4.2,4.2,0,0,1,0,6l-4.34,4.34a4.22,4.22,0,0,1-6,0L52.87,103.4a4.22,4.22,0,0,1,0-6l4.34-4.34a4.19,4.19,0,0,1,3-1.24m0-1a5.17,5.17,0,0,0-3.68,1.53l-4.35,4.34a5.22,5.22,0,0,0,0,7.37l93.67,93.68a5.24,5.24,0,0,0,7.38,0l4.34-4.35a5.2,5.2,0,0,0,0-7.37L63.88,92.39a5.19,5.19,0,0,0-3.69-1.53Z" transform="translate(-50.64 -0.84)"/></g></svg>