<svg xmlns="http://www.w3.org/2000/svg" viewBox="0 0 108.44 198.47"><g id="Слой_2" data-name="Слой 2"><path d="M73.19,198.8a4.82,4.82,0,0,1-3.44-1.42l-4.13-4.13a4.88,4.88,0,0,1,0-6.88l93.46-93.46a4.88,4.88,0,0,1,6.88,0L170.09,97a4.86,4.86,0,0,1,0,6.88L76.63,197.38A4.82,4.82,0,0,1,73.19,198.8Z" transform="translate(-63.64 -0.84)"/><path d="M162.52,92a4.33,4.33,0,0,1,3.09,1.28l4.13,4.13a4.37,4.37,0,0,1,0,6.17L76.28,197a4.38,4.38,0,0,1-6.17,0L66,192.9a4.36,4.36,0,0,1,0-6.18l93.45-93.45A4.33,4.33,0,0,1,162.52,92m0-1a5.32,5.32,0,0,0-3.79,1.57L65.27,186a5.35,5.35,0,0,0,0,7.58l4.13,4.13a5.36,5.36,0,0,0,7.58,0l93.46-93.46a5.35,5.35,0,0,0,0-7.58l-4.13-4.13A5.32,5.32,0,0,0,162.52,91Z" transform="translate(-63.64 -0.84)"/><path d="M162.52,108.78a4.67,4.67,0,0,1-3.33-1.38L65.52,13.73a4.72,4.72,0,0,1,0-6.67l4.34-4.34a4.71,4.71,0,0,1,6.66,0L170.2,96.39a4.71,4.71,0,0,1,0,6.66l-4.35,4.35A4.67,4.67,0,0,1,162.52,108.78Z" transform="translate(-63.64 -0.84)"/><path d="M73.19,1.84a4.21,4.21,0,0,1,3,1.23l93.67,93.67a4.2,4.2,0,0,1,0,6l-4.34,4.35a4.22,4.22,0,0,1-6,0L65.87,13.37a4.22,4.22,0,0,1,0-6l4.34-4.34a4.22,4.22,0,0,1,3-1.23m0-1a5.2,5.2,0,0,0-3.68,1.52L65.16,6.71a5.22,5.22,0,0,0,0,7.37l93.67,93.67a5.21,5.21,0,0,0,7.38,0l4.34-4.34a5.2,5.2,0,0,0,0-7.37L76.88,2.36A5.23,5.23,0,0,0,73.19.84Z" transform="translate(-63.64 -0.84)"/></g></svg>