<?xml version="1.0" encoding="utf-8"?>
<!-- Generator: Adobe Illustrator 24.1.0, SVG Export Plug-In . SVG Version: 6.00 Build 0)  -->
<svg version="1.1" id="Слой_1" xmlns="http://www.w3.org/2000/svg" xmlns:xlink="http://www.w3.org/1999/xlink" x="0px" y="0px"
	 viewBox="0 0 1000 1000" style="enable-background:new 0 0 1000 1000;" xml:space="preserve">
<style type="text/css">
	.st0{fill:#A3A3A3;}
</style>
<g>
	<path class="st0" d="M805.6,696.9c-48.4-39.9-160.4-60.8-191.4-74c-44.8-19.1-12.9-45.2,16.4-70.2c29.3-24.9,68.6-83.4,68.6-180.7
		S631.3,176.2,507,176.2c-115.1,0-196.3,83.4-192.5,195.8c3.5,104.8,34.7,134.6,47.6,154.6c25.8,39.9,62.1,47.3,62.1,73.6
		c0,33.2-105.3,34.5-188.3,78.1C151.8,722.6,163,823.7,163,823.7h38.6h609.8h39.7h0.6C854.8,806,854.1,736.9,805.6,696.9z"/>
	<path class="st0" d="M276.2,701.5l0.7-1.3l140.6-40.6c25.9-4.6,45.7-29.2,45.7-58.9c0-21.8-10.7-40.6-26.5-51.1
		c-47.2-36.6-82.7-95.9-82.7-169c0-2.9,0.2-5.8,0.4-8.7c-0.1-1.9-0.6-3.7-0.6-5.6c0-84.1,68.3-152.4,152.6-152.4
		S659,282.1,659,366.3c0,1.9-0.5,3.7-0.6,5.6c0.2,2.9,0.4,5.7,0.4,8.7c0,73.1-34,131.6-82.7,169c-14.9,14.4-26.5,29.4-26.5,51.1
		c0,29.8,19.8,54.3,45.7,58.9l140.6,40.6l0.7,1.3c37.4,12.4,66,44.2,72.9,83.5H203.3C210.2,745.7,238.8,713.9,276.2,701.5z"/>
	<path class="st0" d="M500,10C229.4,10,10,229.4,10,500s219.4,490,490,490s490-219.4,490-490S770.6,10,500,10z M500,951
		C250.9,951,49,749.1,49,500S250.9,49,500,49s451,201.9,451,451S749.1,951,500,951z"/>
</g>
</svg>
