<?xml version="1.0" encoding="utf-8"?>
<!-- Generator: Adobe Illustrator 24.1.0, SVG Export Plug-In . SVG Version: 6.00 Build 0)  -->
<svg version="1.1"
	 id="Слой_1" text-rendering="geometricPrecision" shape-rendering="geometricPrecision" image-rendering="optimizeQuality"
	 xmlns="http://www.w3.org/2000/svg" xmlns:xlink="http://www.w3.org/1999/xlink" x="0px" y="0px" viewBox="0 0 8192 8192"
	 style="enable-background:new 0 0 8192 8192;" xml:space="preserve">
<style type="text/css">
	.st0{fill-rule:evenodd;clip-rule:evenodd;fill:#878787;}
</style>
<path class="st0" d="M6286.6,2530.7c-56.3-116-109.8-233.1-136.4-357.6c-21.1-98.8-25.2-202.4-0.3-313.6
	c-46.4,81.8-91.4,164.3-134.7,248.1c-178.5,345.5-369.9,769.2-112.1,1128.2c75.8,105.5,184.8,175.8,322.8,157
	c119-16.2,217.7-111.9,235.5-276.5C6484.7,2899.1,6376.9,2716.8,6286.6,2530.7L6286.6,2530.7z M708.5,2475.1
	c-260.7-452-454.8-927.8-659.4-1425.1c119.1,468.1,243.8,930.6,436.2,1391.7L708.5,2475.1L708.5,2475.1z M1547.4,2161.3
	c-70.8-517-179.9-1034.7-322.8-1553.1c206.1,431,355.5,901.4,478.8,1390L1547.4,2161.3z M507.1,412.6
	c225.9,840.1,125.8,938.1,215.3,1614.3c15.5,117.1,32.5,227.3,89.6,316c32.4,50.3,77.8,93.7,143.1,127.5
	c270.9,140.3,431.2-16.8,493.3-273c7.2-85.1-16.1-179.8-63.9-278.4c-63.1-130-168.7-266.8-303.5-397.3
	C738.6,1190.2,685.5,862.5,507.1,412.6z M2854,7779.3c-80.5-405.6-248.6-707.6-458.3-992.2l559.4-143.6c9.5,325.3,30.2,643,86,956
	L2854,7779.3z M1709.7,6079.6c-127.8-16.8-255-36.7-373.6-83.1c-94.1-36.8-182.8-90.4-262-172.5c42.7,83.7,86.8,166.8,132.9,249
	c190.1,339.3,438.4,732.3,880,714.8c129.8-5.1,248.5-57.4,308.8-182.9c52-108.3,26.5-243.4-101.1-348.8
	C2126.4,6117.1,1914.8,6106.7,1709.7,6079.6L1709.7,6079.6z M1425.7,5179.4c-127.3-20.6-253.8-44.2-370.9-94.1
	c-93-39.6-180-95.7-256.7-180.1c40.2,84.9,81.8,169.3,125.5,252.9c179.9,344.8,416.4,745,858.4,740.6
	c129.9-1.3,250.1-50,314.1-173.7c55.2-106.7,33.7-242.5-90.7-351.6C1841.1,5229.3,1629.9,5212.6,1425.7,5179.4L1425.7,5179.4z
	 M1171.4,4352.2c-126.1-27-251.3-57-365.7-112.7c-90.9-44.2-175-104.7-247.3-192.9c35.9,86.9,73.2,173.2,112.5,258.9
	c162.3,353.4,378.3,765,820,783c129.8,5.3,252.3-37.4,322.5-157.7c60.5-103.8,45.9-240.5-72.9-355.8
	C1583.7,4422.8,1373.6,4395.6,1171.4,4352.2L1171.4,4352.2z M867.7,3482.2c-127-21.9-253.4-46.8-369.9-97.9
	c-92.6-40.6-179-97.6-254.9-182.8c39.3,85.4,80.1,170.1,122.8,254.1c176.4,346.6,408.7,749.2,850.8,749.4
	c129.9,0,250.6-47.5,315.9-170.5c56.3-106.1,36.2-242.1-87.1-352.6C1282.5,3536.3,1071.5,3517.5,867.7,3482.2z M597,2632.7
	c-124.6-33.3-248.1-69.5-359.6-130.8c-88.6-48.7-169.5-113.3-237.4-205c31.5,88.5,64.4,176.7,99.4,264.1
	c144.5,361.1,339.6,783,779.8,823c129.4,11.7,253.9-24.7,329.9-141.3c65.6-100.6,57.9-237.9-55-359
	C1005.2,2723.9,796.8,2686.1,597,2632.7L597,2632.7z M2966.6,5609.2c86.9-95.2,171.5-192.3,232.3-304.1
	c48.3-88.8,81.7-186.9,89.4-300.6c21.2,91.5,41,183.5,58.7,276.1c73,382,136.1,842.5-213,1113.6c-102.6,79.7-227.1,116.1-354.1,58.9
	c-109.5-49.3-177-169.2-147.2-332C2672,5906.1,2827.2,5761.9,2966.6,5609.2L2966.6,5609.2z M2659.1,4748.5
	c87-95.2,171.5-192.3,232.3-304.1c48.3-88.8,81.7-186.9,89.4-300.6c21.2,91.5,41,183.5,58.7,276.1c73,382,136.1,842.5-213,1113.6
	c-102.6,79.7-227.1,116-354.1,58.9c-109.5-49.4-177-169.2-147.2-332C2364.5,5045.4,2519.6,4901.2,2659.1,4748.5L2659.1,4748.5z
	 M2351.5,3887.7c86.9-95.2,171.5-192.3,232.3-304.1c48.3-88.8,81.7-186.9,89.4-300.6c21.2,91.5,41,183.5,58.7,276.1
	c73,382,136.1,842.5-213,1113.6c-102.6,79.7-227.1,116.1-354.1,58.8c-109.5-49.3-177-169.2-147.2-332
	C2056.9,4184.7,2212.1,4040.5,2351.5,3887.7L2351.5,3887.7z M2058.8,3023.1c86.9-95.2,171.5-192.3,232.3-304.1
	c48.3-88.8,81.7-186.9,89.4-300.6c21.2,91.5,41,183.5,58.7,276.1c73,382,136.1,842.5-213,1113.6c-102.6,79.7-227.1,116.1-354.1,58.9
	c-109.5-49.3-177-169.2-147.2-332C1764.2,3320,1919.4,3175.9,2058.8,3023.1L2058.8,3023.1z M1740.4,2160.2
	c82.1-99.4,161.7-200.6,216.8-315.3c43.8-91.1,72.2-190.7,74.2-304.7c25.8,90.4,50.1,181.2,72.4,272.8
	c92,377.8,178.1,834.7-157.1,1122.8c-98.5,84.7-221,127.3-350.7,76.5c-111.9-43.8-185.2-160.1-163.7-324.2
	C1461,2471.6,1608.7,2319.8,1740.4,2160.2L1740.4,2160.2z M7215.2,3080c360-377.8,660.7-794.4,976.8-1229.4
	c-226.1,426.8-456.4,846.9-752,1249.6L7215.2,3080z M6473.8,2577.2c190.7-485.7,418.8-963.1,679.9-1433.2
	c-301.9,370.2-558,792.2-793,1237.9L6473.8,2577.2L6473.8,2577.2z M7897.1,1123.1c-417.6,763.1-343.4,882-589.8,1518
	c-42.7,110.1-85.2,213.2-161.6,286c-43.4,41.2-97.7,72.7-169.1,90.2c-296.4,72.4-415.1-118-415-381.7c13-84.3,58-170.9,127.8-255.5
	c91.9-111.5,226.9-219.5,388.6-314.5C7488.9,1824.2,7617.7,1518.2,7897.1,1123.1z M3879.5,7728.7c173.9-375.2,408.5-629,679.3-856.1
	L4049,6601.1c-85.9,313.9-181,617.7-309,908.7L3879.5,7728.7L3879.5,7728.7z M5392.2,6346.8c128.2,13.8,256.5,24.5,382.6,7.4
	c100.2-13.6,199-44.7,295.2-105.8c-61.2,71.3-123.7,141.6-187.9,210.7c-264.7,284.9-598.6,608.3-1023.8,487.1
	c-124.9-35.6-228-114.4-257-250.6c-25-117.5,31.7-242.8,180.5-315.1C4978.5,6284.9,5186.6,6324.7,5392.2,6346.8z M5880.5,5538.9
	c128.5,10,257.1,16.9,382.6-4c99.7-16.6,197.5-50.6,292-114.5c-59.1,73.1-119.5,145.2-181.5,216.1
	c-256.1,292.6-580.3,625.8-1008.8,517.4c-125.9-31.9-231.2-107.6-264.3-242.9c-28.5-116.7,24.4-243.6,171.1-320.3
	C5465.1,5489.4,5674.3,5523,5880.5,5538.9z M6322.7,4795c128.9,3.5,257.6,3.9,382-23.3c98.8-21.6,194.7-60.5,285.8-129.1
	c-55.3,75.9-112,151.1-170.4,225c-241.1,305.2-548.1,654.2-981.5,567.5c-127.4-25.5-236.4-95.8-276.2-229.2
	c-34.4-115.1,12.1-244.5,154.7-328.6C5905.4,4766.4,6116,4789.4,6322.7,4795L6322.7,4795z M6823,4021.2
	c128.6,8.6,257.3,14.2,382.6-7.9c99.6-17.6,197-52.6,290.8-117.5c-58.3,73.7-117.9,146.4-179.3,218
	c-253.1,295.2-573.9,631.7-1003.5,527.7c-126.3-30.6-232.3-105.2-266.8-240.1c-29.7-116.4,21.9-243.8,167.8-322.1
	C6407.2,3975.9,6616.7,4007.3,6823,4021.2L6823,4021.2z M7286.4,3259.4c128.9-3,257.5-9,380.3-42.3c97.5-26.5,191.5-70.2,279-143.3
	c-51.5,78.6-104.3,156.5-158.9,233.3c-225.5,316.8-514.7,680.8-951.9,615.9c-128.5-19.1-240.9-83.9-287.3-215.1
	c-40.1-113.3-0.1-244.8,138.1-335.9C6868.1,3251.8,7079.6,3264.2,7286.4,3259.4L7286.4,3259.4z M4281.8,5593.2
	c-62.1-113-121.3-227.3-154.1-350.3c-26-97.7-35.3-200.8-16-313.2c-42.2,84-83.1,168.7-122.1,254.5
	c-161,354-330.9,786.7-55.5,1132.4c80.9,101.6,193.3,166.4,330.2,140.7c118.1-22.1,211.9-122.7,221.3-287.9
	C4498.1,5951.3,4381.3,5774.6,4281.8,5593.2L4281.8,5593.2z M4783.6,4829.3c-62.1-113-121.3-227.3-154.1-350.3
	c-26-97.7-35.3-200.8-16-313.2c-42.2,84-83.1,168.7-122.1,254.5c-161,354-330.9,786.7-55.5,1132.4
	c80.9,101.6,193.3,166.4,330.2,140.7c118.1-22.1,211.9-122.7,221.4-287.9C4999.9,5187.3,4883.1,5010.6,4783.6,4829.3L4783.6,4829.3z
	 M5285.4,4065.3c-62-113-121.3-227.3-154.1-350.3c-26-97.7-35.3-200.8-16-313.2c-42.2,84-83.1,168.7-122.1,254.5
	c-161,354-330.9,786.7-55.5,1132.4c81,101.6,193.3,166.4,330.2,140.7c118.1-22.1,211.9-122.7,221.3-287.9
	C5501.8,4423.4,5385,4246.7,5285.4,4065.3L5285.4,4065.3z M5773.7,3294c-62.1-113-121.3-227.3-154.1-350.3
	c-26-97.7-35.3-200.8-16-313.2c-42.2,84-83.1,168.7-122.1,254.5c-161,354-330.9,786.7-55.5,1132.4c81,101.6,193.3,166.4,330.2,140.7
	c118.1-22.1,211.9-122.7,221.3-287.9C5990.1,3652.1,5873.3,3475.4,5773.7,3294L5773.7,3294z"/>
</svg>
