<svg xmlns="http://www.w3.org/2000/svg" viewBox="0 0 150.16 237.55"><defs><style>.cls-1{fill:#287233;}</style></defs><g id="Слой_2" data-name="Слой 2"><g id="tail"><path class="cls-1" d="M124.28,158.21a21.84,21.84,0,0,1-7.08-6.91l0-.07a1,1,0,0,1-.1-.21,2.79,2.79,0,0,1,.09-2.86,2.87,2.87,0,0,1,2-1.6c3.77-.73,7.55-1.42,11.32-2.11a182.84,182.84,0,0,1,19.71-30.75c-14.33,2.91-22.73,5-22.73,5S59.64-7.17,45.41.32C36.18,5.18,52.9,37.77,52.9,37.77S27.43-4.17,17,1.82,31.18,45.26,31.18,45.26,6.89,10.44.47,28.78C-3.66,40.58,20.54,73.27,31,86.63c2.82,3.31,4.66,5.82,4.66,5.82S33.84,90.24,31,86.63C23.51,77.84,9.11,63.45,4.21,76c-6.74,17.23,49.44,69.66,49.44,69.66s-16.48-5-17,5c-.51,10.25,16.12,15.63,21.39,17.07,1,.22,1.58.4,1.58.4s-.59-.13-1.58-.4c-4.66-1.07-18-3.17-15.9,8.39s22.73,15.23,22.73,15.23-13-.46-10.49,8.24c4.23,14.86,36.77,29.63,58.51,38-.37-4.46-.61-8.94-.66-13.43A173.62,173.62,0,0,1,124.28,158.21Z"/></g></g></svg>