<svg xmlns="http://www.w3.org/2000/svg" viewBox="0 0 105.82 153.19"><defs><style>.cls-1{fill:#287233;}</style></defs><g id="Слой_2" data-name="Слой 2"><g id="leg_2"><path class="cls-1" d="M69.75,75.22A163.2,163.2,0,0,1,49.26,38.77,133.84,133.84,0,0,1,40.19.6c-1.18,0-2.36,0-3.54,0C31.17.58,25.68.36,20.2,0A220.2,220.2,0,0,0,0,37.52,58.06,58.06,0,0,1,6.63,40,54.5,54.5,0,0,1,32.15,63.8c6.94,13,10.23,27.76,11.45,42.34a165.26,165.26,0,0,1-.64,32.3c6.87,5.2,26.93,18.85,42,13.55,17.26-6.06,20.32-30.1,20.86-38.79-4.57-4-9.18-8-13.57-12.31A209.61,209.61,0,0,1,69.75,75.22Z"/></g></g></svg>