<svg id="Слой_1" data-name="Слой 1" xmlns="http://www.w3.org/2000/svg" viewBox="0 0 106.25 132.17"><defs><style>.cls-1{fill:#c3131b;}</style></defs><g id="Слой_2" data-name="Слой 2"><g id="legs"><path class="cls-1" d="M103.23,104.92c-6.8-2.47-41.42-11.13-41.42-11.13s30-.71,34.31-.09,7.41,7.29,7.41,7.29S106,87.64,98,85.79s-55-2.07-55-2.07L18.75,0,7.62,4.33S30.29,73.7,29.05,83.59s-19.78,13-24,17.93-5,11.74-5,11.74,3.71-6.18,9.89-8.65,24.73-6.8,24.73-6.8,35.15,18.61,38.18,21.64,4.69,12.72,4.69,12.72,5.47-9,3-14S56.25,99.66,56.25,99.66,94,110,98.28,112.46s5,10.82,5,10.82S110,107.39,103.23,104.92Z"/></g></g></svg>