<svg xmlns="http://www.w3.org/2000/svg" viewBox="0 0 219.3 241.33"><defs><style>.cls-1{fill:#c3161b;}</style></defs><g id="Слой_2" data-name="Слой 2"><g id="chest"><path class="cls-1" d="M180.08,33.58a136,136,0,0,1-71-24.15A141.3,141.3,0,0,1,97.14,0C94.08.9,91,1.86,88,3c-1.5.56-3,1.13-4.46,1.73l-1.28.52-.8.33-2.34,1q-5.79,2.56-11.37,5.57-6.31,3.39-12.32,7.34l-1.08.73A48.83,48.83,0,0,1,76.6,34.48,47.35,47.35,0,0,1,87.65,58.32,47.73,47.73,0,0,1,84,84.81c-9.25,21.25-30.18,35.65-51.88,42a135,135,0,0,1-32.1,5c.12,1.44.25,2.89.42,4.33a130.82,130.82,0,0,0,12.8,42,160.67,160.67,0,0,0,10.17,17.62,173.56,173.56,0,0,0,10.85,14.65,218.88,218.88,0,0,0,20.89,22c2.48,2.27,5,4.49,7.53,6.69.86.75,1.75,1.48,2.6,2.25,14.29-.8,52.42-6.22,93.42-39.85C203.12,165,216.6,124.08,219.1,79.63c.63-11.25-.3-29-2-49.24A137.13,137.13,0,0,1,180.08,33.58Z"/></g></g></svg>