<svg xmlns="http://www.w3.org/2000/svg" viewBox="0 0 282.37 326.4"><defs><style>.cls-1{fill:#c3161b;}</style></defs><g id="Слой_2" data-name="Слой 2"><g id="back"><path class="cls-1" d="M91.43,222.25c5.77-10.08,14.82-17.69,26.16-20.62a47.06,47.06,0,0,1,20.14-.63A227.49,227.49,0,0,1,157,164.42c-3.89-.37-7.78-.78-11.65-1.31a370.87,370.87,0,0,1-57.71-12.84A254.63,254.63,0,0,1,61,140.71c-6.54-2.81-13.06-6-18.63-10.47-4.83-3.88-9-10.45-5.83-16.71l.06-.12c-5.82-.52-11.85-1.58-17-4.46S10.1,99.89,12.4,93.82c1.24-3.26,4-5.36,7.08-6.76-1.05-.28-2.1-.58-3.14-.91-1.64-.52-3.32-1.11-5-1.79a162.35,162.35,0,0,0-8.86,31.27,175.09,175.09,0,0,0-1.6,47.62c7.73,2.82,12.94,4.45,12.94,4.45s-4.42,34.48,8.49,66.91c16,40.27,47.08,76,82.05,91.79A187.14,187.14,0,0,1,88.76,289C82.41,267.49,79.85,242.49,91.43,222.25Z"/><path class="cls-1" d="M19.83,66.2q33-5.79,66.25-9.82C109.49,53.52,133,51.26,156.55,50c20.2-1.11,40.53-1.66,60.73-.28a174.48,174.48,0,0,1,19.54,2.15,159,159,0,0,1,23.93-14.45,167.73,167.73,0,0,1,19.89-8.27l1.73-.58A137.57,137.57,0,0,1,260,0c-5.3,12.34-8.58,20.51-8.58,20.51s-64-4.29-119.09,1.13C96.27,25.18,64,30.6,41.41,34.93A182.15,182.15,0,0,0,30,49.63,171.85,171.85,0,0,0,19.83,66.2Z"/></g></g></svg>