<?xml version="1.0" encoding="utf-8"?>
<!-- Generator: Adobe Illustrator 24.1.0, SVG Export Plug-In . SVG Version: 6.00 Build 0)  -->
<svg version="1.1" id="Слой_1" xmlns="http://www.w3.org/2000/svg" xmlns:xlink="http://www.w3.org/1999/xlink" x="0px" y="0px"
	 viewBox="0 0 1000 1000" style="enable-background:new 0 0 1000 1000;" xml:space="preserve">
<style type="text/css">
	.st0{fill:#0F6F12;}
</style>
<g>
	<g transform="translate(0.000000,511.000000) scale(0.100000,-0.100000)">
		<path class="st0" d="M7936.4,4261.3c-191.7-78.8-300.4-179-381.4-355.8c-66-140.6-74.6-343-21.3-498.6
			c40.5-115,210.9-313.2,306.8-353.7c34.1-14.9,63.9-34.1,63.9-42.6s-55.4-68.2-121.5-130c-168.3-153.4-426.1-270.6-884.2-402.7
			c-500.7-142.8-713.8-219.5-939.6-334.5l-187.5-98l-132.1,36.2c-579.5,153.4-1223,155.5-1815.3,0
			C2518.3,1742.9,1308.1,632.9,896.9-605c-98-289.8-132.1-498.5-132.1-784.1c0-666.9,302.5-1129.2,960.9-1470.1l223.7-115
			l-747.8-2.1c-771.3,0-830.9-6.4-952.4-89.5c-87.4-61.8-151.3-200.3-149.1-326c0-121.4,38.3-208.8,127.8-291.9
			c85.2-81,155.5-102.3,338.8-102.3h157.7l89.5-138.5l91.6-138.5h3824.4h3824.4l91.6,138.5l89.5,138.5h161.9
			c289.7,0,460.2,144.9,464.5,394.2c2.1,140.6-59.7,257.8-176.9,340.9l-91.6,63.9l-790.4,6.4l-792.6,6.4l153.4,72.4
			c402.7,187.5,730.8,479.4,877.8,781.9c112.9,228,151.3,383.5,166.2,645.6c12.8,247.2-27.7,528.4-112.9,803.2
			C8537.2-490,8356.1-78.8,8332.7-78.8c-6.4-2.1-46.9-55.4-87.3-121.4c-40.5-66-159.8-208.8-262.1-317.5
			c-287.6-302.5-571-496.4-943.8-645.6c-711.6-285.5-1442.4-204.6-1821.7,202.4c-83.1,87.3-189.6,240.8-189.6,270.6
			c0,8.5,44.7-17,98-57.5c272.7-208.8,656.2-300.4,1039.7-249.3c551.8,74.6,1041.8,381.4,1399.8,875.7
			c196,272.7,340.9,596.6,517.8,1171.8c147,475.1,321.7,850.1,479.4,1024.8l106.5,119.3l123.5-119.3
			c93.8-91.6,153.4-130,249.3-159.8c317.4-100.1,656.2,42.6,803.2,340.9c72.4,147,72.4,421.9,2.1,566.7
			c-63.9,127.8-191.8,255.7-319.6,317.5c-153.4,74.6-396.3,70.3-571-10.7c-155.5-70.3-221.6-66.1-260,12.8
			c-23.4,51.1-19.2,70.3,42.6,191.8c130,255.7,81,568.9-119.3,769.1c-127.8,127.8-232.2,170.4-438.9,179
			C8070.6,4284.7,7974.7,4278.3,7936.4,4261.3z"/>
	</g>
</g>
</svg>
