<svg xmlns="http://www.w3.org/2000/svg" viewBox="0 0 386.48 386.48"><defs><style>.cls-1{fill:#007e17;stroke:#007e17;stroke-width:20.18px;}.cls-2{fill:#fff;}</style></defs><g id="Слой_2" data-name="Слой 2"><g id="_лой_1" data-name="—лой_1"><path class="cls-1" d="M376.39,193.24A183.15,183.15,0,1,1,193.24,10.09,183.14,183.14,0,0,1,376.39,193.24Z"/><path class="cls-2" d="M280.88,164.07c16.21,77.3-54.5,138.56-90.76,163.15,60.23-56.41,77.52-107.41,50.4-174.88C258,229,221.16,271.68,205.64,297.75c-.14-2.78,6.1-15.8-3.28-49.53-5.73-20.59-17.85-67.81,4.66-109.67C228.65,98.31,282,77.2,282.67,76.72,281.74,78,265,88.33,280.88,164.07Z"/><path class="cls-2" d="M148.37,212.62c55.56,35.17,52.23,67,43,101.6-.13-39.41-14.28-65.51-66.27-89.78,48.79,30.42,61.32,63.55,59.08,99.84-.28-1.89-.34-11.88-18.39-26-14.12-11.05-65.52-24.81-81.49-60.63-15.68-35.17,12.07-74.53,12.57-75.36C97.16,162.75,94,178.17,148.37,212.62Z"/></g></g></svg>