<svg xmlns="http://www.w3.org/2000/svg" viewBox="0 0 802.09 707.74"><defs><style>.cls-1{fill:#fff}.cls-2{fill:#f50000}.cls-3{fill:#00862b}</style></defs><path class="cls-1" d="M888.61 641.55h-7a353.9 353.9 0 0015.25-103.06c0-195.43-158.44-353.87-353.87-353.87s-353.9 158.44-353.9 353.87a353.56 353.56 0 0015.25 103.06h-7a55.39 55.39 0 00-55.39 55.39v66.15a55.39 55.39 0 0055.39 55.39h129.19a353.94 353.94 0 00432.85 0h129.23A55.39 55.39 0 00944 763.09v-66.15a55.39 55.39 0 00-55.39-55.39z" transform="translate(-141.91 -184.62)" id="подложка"/><g id="лого"><rect class="cls-1" x="8.96" y="452.03" width="780.48" height="179.02" rx="60"/><circle class="cls-2" cx="342.88" cy="257.93" r="20.87"/><path class="cls-3" d="M374.49 740.35l1-60.39a5 5 0 00-5-5H357a5 5 0 00-5 5l-.21 108a2.23 2.23 0 003.72 1.68l80.35-71.85a1.53 1.53 0 012.54 1.21l-.94 64.11a4.46 4.46 0 004.45 4.46h14.59a4.46 4.46 0 004.46-4.46V674.27a2.24 2.24 0 00-3.7-1.69l-79.86 69.1a1.76 1.76 0 01-2.91-1.33zm-68.63-65.3l-43.09 71.89a1.42 1.42 0 01-2.45 0l-43.09-71.89a2.56 2.56 0 00-4.67.67l-26.67 101.64a5 5 0 003.63 6.1l13.61 3.37a5 5 0 006-3.56l14.26-53.79 36.16 56.24a2.35 2.35 0 003.95 0l36.15-56.24 14.27 53.79a5 5 0 006 3.56l13.62-3.37a5 5 0 003.62-6.1l-26.63-101.64a2.56 2.56 0 00-4.67-.67zM796.89 679L784 673.45a4.65 4.65 0 00-5.82 1.83L751.07 721a3.07 3.07 0 01-5.18.18l-33.75-49a3.48 3.48 0 00-4.82-.83L694 680.69a3.4 3.4 0 00-.77 4.82l41.6 55.49a3.77 3.77 0 01.2 4.25l-18.8 30.46a3.45 3.45 0 001.83 5.09l17.25 5.9a3.46 3.46 0 004.09-1.5l59.6-99.46a4.67 4.67 0 00-2.11-6.74zM531 674.83a368.61 368.61 0 00-37.17 1.57 5.39 5.39 0 00-4.86 5.37v101.08a4.72 4.72 0 004.72 4.72h14.07a4.71 4.71 0 004.71-4.72v-37.52C550.3 754 576 736 576 711.63c0-23.16-19.17-36.8-45-36.8zm-18.5 52.42V693.9s36.5-3.77 36.5 17.17c0 21.19-36.5 16.18-36.5 16.18zm342.76-52.42a368.61 368.61 0 00-37.17 1.57 5.39 5.39 0 00-4.86 5.37v101.08a4.71 4.71 0 004.71 4.72H832a4.72 4.72 0 004.72-4.72v-37.52c37.8 8.65 63.45-9.3 63.45-33.7.01-23.16-19.11-36.8-44.91-36.8zm-18.53 52.42V693.9s36.46-3.77 36.46 17.17c0 21.19-36.46 16.18-36.46 16.18zm-16.55-242.47a.35.35 0 00-.7 0 79.51 79.51 0 01-78.14 64.81q-3.65 0-7.22-.33a7.61 7.61 0 00-8.18 5.91l-2.05 9.35a7.7 7.7 0 006.4 9.3 79.51 79.51 0 0090.55-78.73 81.21 81.21 0 00-.66-10.31z" transform="translate(-141.91 -184.62)"/><path class="cls-2" d="M732.42 389.41a73.76 73.76 0 00-8.58.49 3.49 3.49 0 01-3.65-4.79 82.32 82.32 0 005.91-35.36c-2.25-43.42-38.47-77.94-82-78.21a82.42 82.42 0 00-63.1 28.79 3.47 3.47 0 01-5.88-1 75.46 75.46 0 00-141.81 51.43 3.37 3.37 0 004.93 1.82A191.61 191.61 0 01537 325.34a193.84 193.84 0 0128.48 2.1q7.53 1.11 14.86 2.8A192.64 192.64 0 01690.74 402q4.69 6.22 8.89 12.84a191.58 191.58 0 0129.89 103c0 6.2-.31 12.33-.88 18.38a3.74 3.74 0 003.74 4.09 75.46 75.46 0 100-150.91zm-341.55-2.07l-88.48-5.68a3.62 3.62 0 00-3.29 5.57L337.36 447l-70.14 19.8a3.62 3.62 0 00-1.21 6.37l75.35 56.6a2.12 2.12 0 003.39-1.8q-.25-5-.26-10.12a191.76 191.76 0 0147.84-127 2.12 2.12 0 00-1.46-3.51z" transform="translate(-141.91 -184.62)"/><path class="cls-3" d="M667.62 787.22L692 783.6a2.4 2.4 0 001.38-4l-47.81-49.69a1.24 1.24 0 010-1.68l38.76-42.55a3.36 3.36 0 00-.64-5.12l-12.44-8a4.5 4.5 0 00-5.86.85l-40.92 47.76a4.88 4.88 0 01-3.7 1.7H617a1.23 1.23 0 01-1.23-1.23v-42.21a4.48 4.48 0 00-4.48-4.48h-14.5a4.48 4.48 0 00-4.48 4.48v103.66a4.49 4.49 0 004.48 4.48h14.54a4.49 4.49 0 004.48-4.48v-49.27a1.23 1.23 0 011.23-1.23h2.8a4.85 4.85 0 013.83 1.87l40.14 51.29a4.11 4.11 0 003.81 1.47zM537.55 346.66c-100.58 0-182.11 81.53-182.11 182.1a183.8 183.8 0 002.73 31.51l-76.46-57a2.31 2.31 0 00-3.16.39l-.1.13a2.31 2.31 0 00.36 3.28l81.48 63.61a181.1 181.1 0 0023.3 55.4 1.62 1.62 0 002.21.5 1.6 1.6 0 00.56-2.12A182.11 182.11 0 01660 395.32a.49.49 0 00.64-.75 181.42 181.42 0 00-123.09-47.91z" transform="translate(-141.91 -184.62)"/></g></svg>