<?xml version="1.0" encoding="utf-8"?>
<!-- Generator: Adobe Illustrator 24.1.0, SVG Export Plug-In . SVG Version: 6.00 Build 0)  -->
<svg version="1.1" id="Слой_1" xmlns="http://www.w3.org/2000/svg" xmlns:xlink="http://www.w3.org/1999/xlink" x="0px" y="0px"
	 viewBox="0 0 640 1280" style="enable-background:new 0 0 640 1280;" xml:space="preserve">
<style type="text/css">
	.st0{fill:#0F6F13;}
</style>
<g transform="translate(0.000000,1280.000000) scale(0.100000,-0.100000)">
	<path class="st0" d="M3033,12785c-93-17-162-40-248-83c-255-127-432-345-507-623l-23-84l-5-4232l-5-4232l-85-56
		c-437-292-714-707-821-1233c-27-130-36-423-19-570c94-797,686-1452,1471-1626c990-219,1982,385,2238,1365c50,191,56,247,56,489
		c0,239-8,301-61,499c-91,337-299,673-560,903c-85,76-213,171-281,209l-43,24v518v517h325h325v120v120h-325h-325v765v765h325h325
		v120v120h-325h-325v765v765h325h325v120v120l-322,2l-323,3l-3,763l-2,762h325h325v125v125h-325h-325v913c0,850-2,918-19,1002
		c-38,186-127,345-270,485C3632,12743,3327,12839,3033,12785z M3373,12436c189-60,340-209,405-400l27-81l3-4312l2-4312l118-69
		c310-184,502-381,646-664c254-498,227-1079-72-1543c-228-355-580-595-1005-687c-150-32-446-32-600,0c-484,102-870,399-1092,841
		c-210,419-208,947,5,1372c142,285,353,504,654,680l126,73v4266c0,2729,4,4289,10,4333c21,140,75,249,178,352c67,67,179,133,262,153
		c25,6,54,14,65,16C3143,12463,3325,12451,3373,12436z"/>
	<path class="st0" d="M2830,5136V3183l-77-28c-436-154-766-531-864-985c-33-153-33-402-1-549c122-545,540-950,1082-1047
		c125-22,335-22,460,0c418,75,778,343,967,721c54,107,87,200,114,326c33,148,33,397,0,549c-98,454-428,831-863,985l-78,28v1953v1954
		h-370h-370V5136z"/>
</g>
</svg>
