<?xml version="1.0" encoding="utf-8"?>
<!-- Generator: Adobe Illustrator 24.1.0, SVG Export Plug-In . SVG Version: 6.00 Build 0)  -->
<svg version="1.1" id="Capa_1" xmlns="http://www.w3.org/2000/svg" xmlns:xlink="http://www.w3.org/1999/xlink" x="0px" y="0px"
	 viewBox="0 0 512 512" style="enable-background:new 0 0 512 512;" xml:space="preserve">
<style type="text/css">
	.st0{fill:#0F6F12;}
</style>
<g>
	<g>
		<path class="st0" d="M256,255.3c-17.6,0-31.9,14.3-31.9,31.9S238.4,319,256,319s31.9-14.3,31.9-31.9S273.6,255.3,256,255.3z
			 M256,299c-6.6,0-11.9-5.3-11.9-11.9s5.3-11.9,11.9-11.9c6.6,0,11.9,5.3,11.9,11.9S262.6,299,256,299z"/>
	</g>
</g>
<g>
	<g>
		<path class="st0" d="M210.2,325c-17.6,0-31.9,14.3-31.9,31.9s14.3,31.9,31.9,31.9s31.9-14.3,31.9-31.9S227.8,325,210.2,325z
			 M210.2,368.8c-6.6,0-11.9-5.3-11.9-11.9s5.3-11.9,11.9-11.9c6.6,0,11.9,5.3,11.9,11.9C222.1,363.5,216.8,368.8,210.2,368.8z"/>
	</g>
</g>
<g>
	<g>
		<path class="st0" d="M301.8,325c-17.6,0-31.9,14.3-31.9,31.9s14.3,31.9,31.9,31.9s31.9-14.3,31.9-31.9S319.4,325,301.8,325z
			 M301.8,368.8c-6.6,0-11.9-5.3-11.9-11.9s5.3-11.9,11.9-11.9s11.9,5.3,11.9,11.9C313.7,363.5,308.3,368.8,301.8,368.8z"/>
	</g>
</g>
<g>
	<g>
		<path class="st0" d="M164.4,394.8c-17.6,0-31.9,14.3-31.9,31.9s14.3,31.9,31.9,31.9s31.9-14.3,31.9-31.9
			C196.3,409.1,182,394.8,164.4,394.8z M164.4,438.6c-6.6,0-11.9-5.3-11.9-11.9s5.3-11.9,11.9-11.9s11.9,5.3,11.9,11.9
			C176.3,433.3,171,438.6,164.4,438.6z"/>
	</g>
</g>
<g>
	<g>
		<path class="st0" d="M256,394.8c-17.6,0-31.9,14.3-31.9,31.9s14.3,31.9,31.9,31.9s31.9-14.3,31.9-31.9
			C287.9,409.1,273.6,394.8,256,394.8z M256,438.6c-6.6,0-11.9-5.3-11.9-11.9s5.3-11.9,11.9-11.9c6.6,0,11.9,5.3,11.9,11.9
			C267.9,433.3,262.6,438.6,256,438.6z"/>
	</g>
</g>
<g>
	<g>
		<path class="st0" d="M347.6,394.8c-17.6,0-31.9,14.3-31.9,31.9s14.3,31.9,31.9,31.9s31.9-14.3,31.9-31.9
			C379.5,409.1,365.2,394.8,347.6,394.8z M347.6,438.6c-6.6,0-11.9-5.3-11.9-11.9s5.3-11.9,11.9-11.9s11.9,5.3,11.9,11.9
			C359.5,433.3,354.2,438.6,347.6,438.6z"/>
	</g>
</g>
<g>
	<g>
		<path class="st0" d="M482,83.4c-39.9-39.9-104.9-39.9-144.8,0L256.1,164l-81.3-80.6C134.9,43.4,69.9,43.4,30,83.4
			C-10,123.3-10,188.3,30,228.2l87.6,87.6c2,2,4.5,2.9,7.1,2.9c2.6,0,5.1-1,7.1-2.9l124.4-123.7l124.2,123.7c2,1.9,4.5,2.9,7.1,2.9
			c2.6,0,5.1-1,7.1-2.9l87.6-87.6C522,188.3,522,123.3,482,83.4z M124.7,294.6l-16.2-16.2l69.6-69.6c3.9-3.9,3.9-10.2,0-14.1
			c-3.9-3.9-10.2-3.9-14.1,0l-69.6,69.6l-50.3-50.3C12,181.9,12,129.6,44.1,97.5c16.1-16.1,37.2-24.1,58.3-24.1
			c21.1,0,42.2,8,58.3,24.1l81.3,80.5L124.7,294.6z M467.9,214.1l-80.6,80.6l-117-116.6l16.4-16.3l69.7,69.7c2,2,4.5,2.9,7.1,2.9
			s5.1-1,7.1-2.9c3.9-3.9,3.9-10.2,0-14.1l-69.7-69.7l50.4-50.1c32.1-32.1,84.4-32.1,116.6,0C500,129.6,500,181.9,467.9,214.1z"/>
	</g>
</g>
<g>
	<g>
		<path class="st0" d="M396.6,243.3c-0.5-0.5-1-0.9-1.5-1.2c-0.5-0.4-1.1-0.7-1.7-0.9c-0.6-0.2-1.2-0.4-1.9-0.6
			c-1.3-0.3-2.6-0.3-3.9,0c-0.6,0.1-1.3,0.3-1.9,0.6c-0.6,0.2-1.2,0.6-1.7,0.9c-0.5,0.4-1.1,0.8-1.5,1.2s-0.9,1-1.2,1.5
			c-0.4,0.5-0.7,1.1-0.9,1.7c-0.2,0.6-0.4,1.2-0.6,1.9s-0.2,1.3-0.2,1.9s0.1,1.3,0.2,2c0.1,0.6,0.3,1.3,0.6,1.9
			c0.2,0.6,0.6,1.2,0.9,1.7c0.4,0.5,0.8,1.1,1.2,1.5s1,0.9,1.5,1.2c0.5,0.4,1.1,0.7,1.7,0.9s1.2,0.4,1.9,0.6
			c0.6,0.1,1.3,0.2,1.9,0.2c0.7,0,1.3-0.1,2-0.2c0.6-0.1,1.3-0.3,1.9-0.6c0.6-0.2,1.2-0.6,1.7-0.9c0.5-0.4,1.1-0.8,1.5-1.2
			c0.5-0.5,0.9-1,1.2-1.5c0.4-0.5,0.7-1.1,0.9-1.7c0.2-0.6,0.4-1.2,0.6-1.9c0.1-0.6,0.2-1.3,0.2-2
			C399.5,247.7,398.4,245.1,396.6,243.3z"/>
	</g>
</g>
<g>
	<g>
		<path class="st0" d="M206.7,173.9c-0.1-0.6-0.3-1.3-0.6-1.9c-0.2-0.6-0.6-1.2-0.9-1.7c-0.4-0.6-0.8-1.1-1.2-1.5s-1-0.9-1.5-1.2
			c-0.6-0.4-1.1-0.7-1.7-0.9c-0.6-0.2-1.2-0.4-1.9-0.6c-1.3-0.3-2.6-0.3-3.9,0c-0.6,0.1-1.3,0.3-1.9,0.6c-0.6,0.2-1.2,0.6-1.7,0.9
			c-0.5,0.4-1.1,0.8-1.5,1.2c-0.5,0.5-0.9,1-1.2,1.5c-0.4,0.5-0.7,1.1-0.9,1.7c-0.2,0.6-0.4,1.2-0.6,1.9s-0.2,1.3-0.2,1.9
			s0.1,1.3,0.2,2c0.1,0.6,0.3,1.3,0.6,1.9c0.2,0.6,0.6,1.2,0.9,1.7c0.4,0.6,0.8,1.1,1.2,1.5c0.5,0.5,1,0.9,1.5,1.2
			c0.6,0.4,1.1,0.7,1.7,0.9c0.6,0.2,1.2,0.4,1.9,0.6c0.6,0.1,1.3,0.2,2,0.2c2.6,0,5.2-1.1,7.1-2.9c0.5-0.5,0.9-1,1.2-1.5
			c0.4-0.5,0.7-1.1,0.9-1.7c0.2-0.6,0.4-1.2,0.6-1.9c0.1-0.6,0.2-1.3,0.2-2C206.9,175.2,206.9,174.6,206.7,173.9z"/>
	</g>
</g>
<g>
	<g>
		<path class="st0" d="M146.6,185l-21.4-57.4c-0.4-1.1-0.8-1.7-1.5-2.4c-4-4-15,0.8-18.2,4c-2.3,2.3-3,4.9-1.8,7.4l15.7,36.1
			L83.2,157c-2.5-1.1-5.2-0.4-7.5,1.9c-4.4,4.4-8,14.2-4.1,18.1c0.6,0.6,1.8,1.3,2.7,1.6l57.4,21.4c3.2,1.2,7.6-1.7,10.4-4.5
			C145.2,192.3,147.7,187.9,146.6,185z"/>
	</g>
</g>
</svg>
