<?xml version="1.0" encoding="utf-8"?>
<!-- Generator: Adobe Illustrator 24.1.0, SVG Export Plug-In . SVG Version: 6.00 Build 0)  -->
<svg version="1.1" id="Layer_1" xmlns="http://www.w3.org/2000/svg" xmlns:xlink="http://www.w3.org/1999/xlink" x="0px" y="0px"
	 viewBox="0 0 191.1 191.1" style="enable-background:new 0 0 191.1 191.1;" xml:space="preserve">
<style type="text/css">
	.st0{fill:#0F6F13;}
</style>
<g>
	<g>
		<path class="st0" d="M177.2,100.8h-4.3l-14.4-45.2h1.4c1.9,0,3.5-1.6,3.5-3.5s-1.6-3.5-3.5-3.5H97.3V27.3
			c6-1.6,10.4-6.9,10.4-13.4c0-7.7-6.2-13.9-13.9-13.9S79.9,6.2,79.9,13.9c0,6.5,4.4,11.9,10.4,13.4v21.3H27.8
			c-1.9,0-3.5,1.6-3.5,3.5s1.6,3.5,3.5,3.5h4.9l-14.3,45.2h-4.5c-1.9,0-3.5,1.6-3.5,3.5c0,15.3,12.5,27.8,27.8,27.8
			S66,119.6,66,104.2c0-1.9-1.6-3.5-3.5-3.5h-4.3L43.8,55.6h46.5v111.5c-9.8,1.7-17.4,10.2-17.4,20.5c0,1.9,1.6,3.5,3.5,3.5h34.7
			c1.9,0,3.5-1.6,3.5-3.5c0-10.3-7.5-18.9-17.4-20.5V55.6h50.1L133,100.8h-4.5c-1.9,0-3.5,1.6-3.5,3.5c0,15.3,12.5,27.8,27.8,27.8
			s27.8-12.5,27.8-27.8C180.7,102.3,179.1,100.8,177.2,100.8z M58.8,107.7c-1.7,9.8-10.2,17.4-20.6,17.4s-18.9-7.5-20.6-17.4H58.8z
			 M50.9,100.8H25.7L38.2,61L50.9,100.8z M86.9,13.9c0-3.8,3.1-6.9,6.9-6.9s6.9,3.1,6.9,6.9s-3.1,6.9-6.9,6.9
			C90,20.8,86.9,17.7,86.9,13.9z M107.3,184.2H80.4c1.5-5.9,6.9-10.4,13.3-10.4c0,0,0.1,0,0.1,0s0.1,0,0.1,0
			C100.3,173.8,105.7,178.2,107.3,184.2z M152.9,61l12.7,39.7h-25.3L152.9,61z M152.9,125.1c-10.3,0-18.9-7.5-20.6-17.4h41.1
			C171.8,117.6,163.2,125.1,152.9,125.1z"/>
	</g>
</g>
</svg>
